<svg xmlns="http://www.w3.org/2000/svg" width="360" height="360"><path d="m 317.41519,164.87221 51.69387,291.95955" fill="none" stroke="#4c4c4c" stroke-width="1.006" transform="translate(-164.155 -129.197)"/><path d="M 292.45874,171.57824 394.06551,450.12573" fill="none" stroke="#4c4c4c" stroke-width="1.006" transform="translate(-164.155 -129.197)"/><path d="M 269.04592,182.51603 417.47833,439.18794" fill="none" stroke="#4c4c4c" stroke-width="1.006" transform="translate(-164.155 -129.197)"/><path d="M 247.88813,197.35326 438.63612,424.35071" fill="none" stroke="#4c4c4c" stroke-width="1.006" transform="translate(-164.155 -129.197)"/><path d="M 229.62822,215.63908 456.89603,406.06489" fill="none" stroke="#4c4c4c" stroke-width="1.006" transform="translate(-164.155 -129.197)"/><path d="M 197.43063,337.52289 489.09362,284.18108" fill="none" stroke="#4c4c4c" stroke-width="1.006" transform="translate(-164.155 -129.197)"/><path d="M 214.82103,236.8179 471.70322,384.88607" fill="none" stroke="#4c4c4c" stroke-width="1.006" transform="translate(-164.155 -129.197)"/><path d="M 204.2775,362.44107 482.24675,259.2629" fill="none" stroke="#4c4c4c" stroke-width="1.006" transform="translate(-164.155 -129.197)"/><path d="M 203.91645,260.24621 482.6078,361.45776" fill="none" stroke="#4c4c4c" stroke-width="1.006" transform="translate(-164.155 -129.197)"/><path d="M 215.34734,385.79175 471.17691,235.91223" fill="none" stroke="#4c4c4c" stroke-width="1.006" transform="translate(-164.155 -129.197)"/><path d="m 197.24582,285.21215 292.03261,51.27967" fill="none" stroke="#4c4c4c" stroke-width="1.006" transform="translate(-164.155 -129.197)"/><path d="M 230.30381,406.86541 456.22044,214.83856" fill="none" stroke="#4c4c4c" stroke-width="1.006" transform="translate(-164.155 -129.197)"/><path d="m 567.70572,311.41528 a 177.28177,177.28177 0 1 1 -354.56354,0 177.28177,177.28177 0 1 1 354.56354,0 z" transform="matrix(1.00603 0 0 1.00603 -213.924 -132.145)" fill="none" stroke="#4c4c4c"/><path d="M 248.69246,425.02175 437.83179,196.68222" fill="none" stroke="#4c4c4c" stroke-width="1.006" transform="translate(-164.155 -129.197)"/><path transform="matrix(.83645 0 0 .83645 -147.717 -79.336)" d="m 567.70572,311.41528 a 177.28177,177.28177 0 1 1 -354.56354,0 177.28177,177.28177 0 1 1 354.56354,0 z" fill="none" stroke="#4c4c4c" stroke-width="1.205"/><path d="M 269.95456,439.70911 416.56969,181.99486" fill="none" stroke="#4c4c4c" stroke-width="1.006" transform="translate(-164.155 -129.197)"/><path d="M 293.44407,450.48121 393.08018,171.22276" fill="none" stroke="#4c4c4c" stroke-width="1.006" transform="translate(-164.155 -129.197)"/><path d="M 318.44728,457.01075 368.07695,164.69322" fill="none" stroke="#4c4c4c" stroke-width="1.006" transform="translate(-164.155 -129.197)"/><path d="m 343.00805,161.97277 0,296.23407" fill="none" stroke="#4c4c4c" stroke-width="2.012" transform="translate(-164.155 -129.197)"/><path d="m 491.12509,310.0898 -296.23407,0" fill="none" stroke="#4c4c4c" stroke-width="2.012" transform="translate(-164.155 -129.197)"/><g style="line-height:125%" font-size="14.084" font-weight="700" letter-spacing="0" word-spacing="0" fill="#e36a5c" font-family="Sans"><path d="m 334.42135,152.97961 0,-1.89809 c 0.42179,0.19715 0.82525,0.34615 1.21037,0.44702 0.38512,0.0963 0.76566,0.14442 1.14161,0.14442 0.78857,0 1.40293,-0.21778 1.84307,-0.65333 0.44013,-0.44013 0.69917,-1.09117 0.77712,-1.95311 -0.31177,0.22924 -0.64417,0.40117 -0.99719,0.51579 -0.35303,0.11462 -0.73586,0.17193 -1.14848,0.17193 -1.04991,0 -1.89809,-0.30489 -2.54454,-0.91466 -0.64187,-0.61436 -0.9628,-1.42127 -0.9628,-2.42075 0,-1.10492 0.35761,-1.98978 1.07284,-2.65458 0.7198,-0.66478 1.6826,-0.99717 2.88839,-0.99718 1.33875,1e-5 2.3749,0.45161 3.10847,1.35479 0.73355,0.90321 1.10033,2.18006 1.10034,3.83057 -10e-6,1.69636 -0.42868,3.03052 -1.28603,4.00249 -0.85735,0.96738 -2.03334,1.45107 -3.52797,1.45108 -0.4814,-1e-5 -0.94217,-0.0367 -1.3823,-0.11004 -0.44014,-0.0688 -0.87111,-0.17422 -1.2929,-0.31635 m 3.26664,-4.94466 c 0.46305,1e-5 0.81149,-0.149 1.04532,-0.44701 0.23382,-0.30259 0.35073,-0.75419 0.35074,-1.3548 -10e-6,-0.59601 -0.11692,-1.04531 -0.35074,-1.34792 -0.23383,-0.30258 -0.58227,-0.45388 -1.04532,-0.45389 -0.46307,1e-5 -0.81151,0.15131 -1.04533,0.45389 -0.23382,0.30261 -0.35073,0.75191 -0.35073,1.34792 0,0.60061 0.11691,1.05221 0.35073,1.3548 0.23382,0.29801 0.58226,0.44702 1.04533,0.44701" style="-inkscape-font-specification:Sans Bold" transform="translate(-164.155 -129.197)"/><path d="m 349.28284,148.06246 c -1e-5,-1.28372 -0.1215,-2.18692 -0.36449,-2.70959 -0.23841,-0.52724 -0.64187,-0.79086 -1.21038,-0.79087 -0.56851,10e-6 -0.97426,0.26363 -1.21725,0.79087 -0.24299,0.52267 -0.36449,1.42587 -0.36449,2.70959 0,1.29749 0.1215,2.21215 0.36449,2.74398 0.24299,0.53183 0.64874,0.79775 1.21725,0.79775 0.56392,0 0.96738,-0.26592 1.21038,-0.79775 0.24299,-0.53183 0.36448,-1.44649 0.36449,-2.74398 m 2.6477,0.0206 c -1e-5,1.70095 -0.36679,3.01448 -1.10035,3.9406 -0.73356,0.92154 -1.7743,1.3823 -3.12222,1.38231 -1.3525,-1e-5 -2.39553,-0.46077 -3.12909,-1.38231 -0.73356,-0.92612 -1.10034,-2.23965 -1.10034,-3.9406 0,-1.70552 0.36678,-3.01905 1.10034,-3.9406 0.73356,-0.92611 1.77659,-1.38917 3.12909,-1.38918 1.34792,1e-5 2.38866,0.46307 3.12222,1.38918 0.73356,0.92155 1.10034,2.23508 1.10035,3.9406" style="-inkscape-font-specification:Sans Bold" transform="translate(-164.155 -129.197)"/></g><g style="line-height:125%" font-size="10.06" font-weight="700" letter-spacing="0" word-spacing="0" fill="#e36a5c" font-family="Sans"><path d="m 388.14705,84.647625 c -0.35368,3e-6 -0.6255,0.09661 -0.81543,0.289822 -0.18994,0.193218 -0.28491,0.46994 -0.28491,0.830168 0,0.360233 0.095,0.636956 0.28491,0.830169 0.18993,0.189941 0.46175,0.284911 0.81543,0.28491 0.3504,10e-7 0.61894,-0.09497 0.80561,-0.28491 0.18666,-0.193213 0.27999,-0.469936 0.27999,-0.830169 0,-0.363503 -0.0933,-0.640225 -0.27999,-0.830168 -0.18667,-0.193212 -0.45521,-0.289819 -0.80561,-0.289822 m -1.38034,-0.623855 c -0.44538,-0.134263 -0.78105,-0.340577 -1.00701,-0.618942 -0.22596,-0.278355 -0.33894,-0.625486 -0.33894,-1.041394 0,-0.618936 0.23087,-1.090511 0.69262,-1.414725 0.46175,-0.324201 1.13964,-0.486305 2.03367,-0.486312 0.88747,7e-6 1.56209,0.162111 2.02384,0.486312 0.46175,0.320939 0.69262,0.792514 0.69263,1.414725 -10e-6,0.415908 -0.11463,0.763039 -0.34386,1.041394 -0.22597,0.278365 -0.56164,0.484679 -1.00701,0.618942 0.49777,0.137547 0.87274,0.361872 1.1249,0.672977 0.25544,0.307837 0.38315,0.697541 0.38316,1.169113 -1e-5,0.727013 -0.24234,1.277183 -0.72701,1.650513 -0.48141,0.370055 -1.19696,0.555083 -2.14665,0.555083 -0.95298,0 -1.67344,-0.185028 -2.16139,-0.555083 -0.48467,-0.37333 -0.72701,-0.9235 -0.72701,-1.650513 0,-0.471572 0.12608,-0.861276 0.37825,-1.169113 0.25543,-0.311105 0.63204,-0.53543 1.12981,-0.672977 m 0.4421,-1.468759 c 0,0.291464 0.0802,0.51579 0.2407,0.672977 0.16374,0.157196 0.39625,0.235792 0.69754,0.235787 0.29473,5e-6 0.52233,-0.07859 0.6828,-0.235787 0.16046,-0.157187 0.2407,-0.381513 0.2407,-0.672977 0,-0.291454 -0.0802,-0.514142 -0.2407,-0.668065 -0.16047,-0.157185 -0.38807,-0.235781 -0.6828,-0.235787 -0.30129,6e-6 -0.5338,0.0786 -0.69754,0.235787 -0.16047,0.157198 -0.2407,0.379886 -0.2407,0.668065" style="-inkscape-font-specification:Sans Bold" transform="rotate(10 656.287 -1002.748)"/><path d="m 396.26698,84.254646 c 0,-0.916947 -0.0868,-1.562087 -0.26035,-1.935423 -0.17029,-0.376599 -0.45848,-0.564901 -0.86455,-0.564907 -0.40608,6e-6 -0.6959,0.188308 -0.86947,0.564907 -0.17357,0.373336 -0.26035,1.018476 -0.26035,1.935423 0,0.926778 0.0868,1.580106 0.26035,1.959983 0.17357,0.379881 0.46339,0.569821 0.86947,0.56982 0.4028,1e-6 0.69098,-0.189939 0.86455,-0.56982 0.17356,-0.379877 0.26035,-1.033205 0.26035,-1.959983 m 1.89121,0.01474 c 0,1.214963 -0.26199,2.1532 -0.78595,2.814714 -0.52398,0.65824 -1.26737,0.98736 -2.23016,0.98736 -0.96608,0 -1.7111,-0.32912 -2.23507,-0.98736 -0.52397,-0.661514 -0.78596,-1.599751 -0.78596,-2.814714 0,-1.21823 0.26199,-2.156467 0.78596,-2.814713 0.52397,-0.661508 1.26899,-0.992265 2.23507,-0.992272 0.96279,7e-6 1.70618,0.330764 2.23016,0.992272 0.52396,0.658246 0.78595,1.596483 0.78595,2.814713" style="-inkscape-font-specification:Sans Bold" transform="rotate(10 656.287 -1002.748)"/></g><g style="line-height:125%" font-size="10.06" font-weight="700" letter-spacing="0" word-spacing="0" fill="#e36a5c" font-family="Sans"><path d="m 420.65665,8.63565 5.52627,0 0,1.065956 -2.85892,6.268018 -1.84209,0 2.70664,-5.94381 -3.5319,0 0,-1.390164" style="-inkscape-font-specification:Sans Bold" transform="rotate(20 284.279 -530.083)"/><path d="m 431.60603,12.295268 c 0,-0.916946 -0.0868,-1.562087 -0.26035,-1.935422 -0.17029,-0.376599 -0.45848,-0.5649013 -0.86455,-0.5649075 -0.40608,6.2e-6 -0.6959,0.1883085 -0.86947,0.5649075 -0.17357,0.373335 -0.26035,1.018476 -0.26035,1.935422 0,0.926779 0.0868,1.580106 0.26035,1.959984 0.17357,0.379881 0.46339,0.569821 0.86947,0.56982 0.4028,10e-7 0.69098,-0.189939 0.86455,-0.56982 0.17356,-0.379878 0.26035,-1.033205 0.26035,-1.959984 m 1.89121,0.01474 c 0,1.214963 -0.26199,2.1532 -0.78595,2.814713 -0.52398,0.658241 -1.26737,0.98736 -2.23016,0.987361 -0.96608,-1e-6 -1.7111,-0.32912 -2.23507,-0.987361 -0.52397,-0.661513 -0.78596,-1.59975 -0.78596,-2.814713 0,-1.21823 0.26199,-2.156467 0.78596,-2.8147131 0.52397,-0.6615078 1.26899,-0.9922649 2.23507,-0.9922724 0.96279,7.5e-6 1.70618,0.3307646 2.23016,0.9922724 0.52396,0.6582461 0.78595,1.5964831 0.78595,2.8147131" style="-inkscape-font-specification:Sans Bold" transform="rotate(20 284.279 -530.083)"/></g><g style="line-height:125%" font-size="10.06" font-weight="700" letter-spacing="0" word-spacing="0" fill="#e36a5c" font-family="Sans"><path d="m 447.81993,-64.372026 c -0.33076,4e-6 -0.57965,0.108073 -0.74666,0.324208 -0.16374,0.212867 -0.24561,0.5338 -0.24561,0.962799 0,0.429004 0.0819,0.751574 0.24561,0.967711 0.16701,0.212865 0.4159,0.319297 0.74666,0.319296 0.33403,10e-7 0.58292,-0.106431 0.74666,-0.319296 0.16701,-0.216137 0.25052,-0.538707 0.25053,-0.967711 -10e-6,-0.428999 -0.0835,-0.749932 -0.25053,-0.962799 -0.16374,-0.216135 -0.41263,-0.324204 -0.74666,-0.324208 m 2.33823,-3.522075 0,1.355778 c -0.31112,-0.147362 -0.60421,-0.255431 -0.87929,-0.324208 -0.27509,-0.07204 -0.54363,-0.108063 -0.80561,-0.108069 -0.56327,6e-6 -1.0021,0.157197 -1.31648,0.471575 -0.31439,0.311114 -0.49778,0.774501 -0.55017,1.390163 0.21613,-0.160462 0.45028,-0.279993 0.70245,-0.358593 0.25216,-0.08187 0.52724,-0.122801 0.82525,-0.122806 0.74994,5e-6 1.35414,0.219418 1.81262,0.65824 0.46175,0.43883 0.69262,1.013562 0.69263,1.724196 -1e-5,0.78596 -0.25708,1.416364 -0.77122,1.891212 -0.51416,0.471575 -1.20351,0.707363 -2.06806,0.707363 -0.95297,0 -1.69145,-0.320933 -2.21542,-0.962799 -0.5207,-0.645139 -0.78104,-1.558815 -0.78104,-2.74103 0,-1.211681 0.30455,-2.163017 0.91367,-2.854011 0.61239,-0.694256 1.45075,-1.041387 2.51507,-1.041395 0.3373,8e-6 0.66478,0.02621 0.98245,0.0786 0.31765,0.05241 0.63203,0.131 0.94315,0.235788" style="-inkscape-font-specification:Sans Bold" transform="rotate(30 159.008 -370.916)"/><path d="m 455.80232,-64.42606 c 0,-0.916947 -0.0868,-1.562087 -0.26035,-1.935423 -0.17029,-0.376599 -0.45848,-0.564901 -0.86455,-0.564907 -0.40608,6e-6 -0.69591,0.188308 -0.86947,0.564907 -0.17357,0.373336 -0.26035,1.018476 -0.26035,1.935423 0,0.926778 0.0868,1.580105 0.26035,1.959983 0.17356,0.379881 0.46339,0.569821 0.86947,0.56982 0.4028,10e-7 0.69098,-0.189939 0.86455,-0.56982 0.17356,-0.379878 0.26035,-1.033205 0.26035,-1.959983 m 1.89121,0.01474 c 0,1.214963 -0.26199,2.1532 -0.78596,2.814714 -0.52397,0.65824 -1.26736,0.98736 -2.23015,0.98736 -0.96608,0 -1.7111,-0.32912 -2.23507,-0.98736 -0.52397,-0.661514 -0.78596,-1.599751 -0.78596,-2.814714 0,-1.21823 0.26199,-2.156467 0.78596,-2.814713 0.52397,-0.661508 1.26899,-0.992265 2.23507,-0.992272 0.96279,7e-6 1.70618,0.330764 2.23015,0.992272 0.52397,0.658246 0.78596,1.596483 0.78596,2.814713" style="-inkscape-font-specification:Sans Bold" transform="rotate(30 159.008 -370.916)"/></g><g style="line-height:125%" font-size="10.06" font-weight="700" letter-spacing="0" word-spacing="0" fill="#e36a5c" font-family="Sans"><path d="m 453.9846,-147.42052 4.70101,0 0,1.39016 -3.19296,0 0,1.13473 c 0.14409,-0.0393 0.28819,-0.0688 0.43228,-0.0884 0.14736,-0.0229 0.29964,-0.0344 0.45684,-0.0344 0.89402,1e-5 1.58992,0.22433 2.0877,0.67298 0.49777,0.44538 0.74665,1.0676 0.74666,1.86665 -1e-5,0.79251 -0.27182,1.41309 -0.81543,1.86174 -0.54035,0.44865 -1.29192,0.67298 -2.25472,0.67298 -0.4159,0 -0.82853,-0.0409 -1.23788,-0.12281 -0.40608,-0.0786 -0.81052,-0.19976 -1.21333,-0.3635 l 0,-1.48841 c 0.39953,0.22924 0.77777,0.40116 1.13473,0.51578 0.36023,0.11462 0.69917,0.17193 1.01683,0.17193 0.45848,0 0.81871,-0.11134 1.0807,-0.33403 0.26525,-0.22596 0.39788,-0.53052 0.39789,-0.91368 -1e-5,-0.38643 -0.13264,-0.69098 -0.39789,-0.91368 -0.26199,-0.22268 -0.62222,-0.33402 -1.0807,-0.33403 -0.27181,1e-5 -0.56163,0.036 -0.86946,0.10807 -0.30784,0.0688 -0.63859,0.17685 -0.99227,0.32421 l 0,-4.12628" style="-inkscape-font-specification:Sans Bold" transform="rotate(40 95.406 -290.104)"/><path d="m 464.541,-143.7609 c -10e-6,-0.91695 -0.0868,-1.56209 -0.26035,-1.93543 -0.1703,-0.37659 -0.45848,-0.5649 -0.86455,-0.5649 -0.40609,0 -0.69591,0.18831 -0.86947,0.5649 -0.17357,0.37334 -0.26035,1.01848 -0.26035,1.93543 0,0.92678 0.0868,1.5801 0.26035,1.95998 0.17356,0.37988 0.46338,0.56982 0.86947,0.56982 0.4028,0 0.69098,-0.18994 0.86455,-0.56982 0.17356,-0.37988 0.26034,-1.0332 0.26035,-1.95998 m 1.89121,0.0147 c -10e-6,1.21497 -0.26199,2.1532 -0.78596,2.81472 -0.52397,0.65824 -1.26736,0.98736 -2.23015,0.98736 -0.96608,0 -1.7111,-0.32912 -2.23507,-0.98736 -0.52398,-0.66152 -0.78596,-1.59975 -0.78596,-2.81472 0,-1.21823 0.26198,-2.15646 0.78596,-2.81471 0.52397,-0.66151 1.26899,-0.99226 2.23507,-0.99227 0.96279,10e-6 1.70618,0.33076 2.23015,0.99227 0.52397,0.65825 0.78595,1.59648 0.78596,2.81471" style="-inkscape-font-specification:Sans Bold" transform="rotate(40 95.406 -290.104)"/></g><g style="line-height:125%" font-size="10.06" font-weight="700" letter-spacing="0" word-spacing="0" fill="#e36a5c" font-family="Sans"><path d="m 452.22882,-226.59195 -2.07296,3.07015 2.07296,0 0,-3.07015 m -0.31438,-1.55718 2.10244,0 0,4.62733 1.0463,0 0,1.37052 -1.0463,0 0,1.33612 -1.78806,0 0,-1.33612 -3.2519,0 0,-1.62104 2.93752,-4.37681" style="-inkscape-font-specification:Sans Bold" transform="rotate(50 56.455 -240.614)"/><path d="m 460.14735,-224.48951 c 0,-0.91695 -0.0868,-1.56209 -0.26035,-1.93542 -0.17029,-0.3766 -0.45848,-0.5649 -0.86455,-0.56491 -0.40608,10e-6 -0.6959,0.18831 -0.86947,0.56491 -0.17357,0.37333 -0.26035,1.01847 -0.26035,1.93542 0,0.92678 0.0868,1.58011 0.26035,1.95998 0.17357,0.37988 0.46339,0.56982 0.86947,0.56982 0.4028,0 0.69098,-0.18994 0.86455,-0.56982 0.17357,-0.37987 0.26035,-1.0332 0.26035,-1.95998 m 1.89121,0.0147 c 0,1.21496 -0.26199,2.1532 -0.78595,2.81471 -0.52398,0.65824 -1.26737,0.98736 -2.23016,0.98736 -0.96608,0 -1.7111,-0.32912 -2.23507,-0.98736 -0.52397,-0.66151 -0.78596,-1.59975 -0.78596,-2.81471 0,-1.21823 0.26199,-2.15647 0.78596,-2.81472 0.52397,-0.6615 1.26899,-0.99226 2.23507,-0.99227 0.96279,1e-5 1.70618,0.33077 2.23016,0.99227 0.52396,0.65825 0.78595,1.59649 0.78595,2.81472" style="-inkscape-font-specification:Sans Bold" transform="rotate(50 56.455 -240.614)"/></g><g style="line-height:125%" font-size="10.06" font-weight="700" letter-spacing="0" word-spacing="0" fill="#e36a5c" font-family="Sans"><path d="m 435.55844,-302.64213 c 0.49449,0.12772 0.86946,0.35041 1.1249,0.66807 0.25871,0.31438 0.38806,0.71555 0.38807,1.2035 -1e-5,0.72701 -0.27837,1.28045 -0.83508,1.66033 -0.55673,0.37661 -1.36888,0.56491 -2.43647,0.56491 -0.37661,0 -0.75485,-0.0311 -1.13473,-0.0933 -0.37661,-0.059 -0.74994,-0.14901 -1.11999,-0.27018 l 0,-1.45893 c 0.35368,0.17684 0.70408,0.31111 1.05122,0.4028 0.3504,0.0884 0.69426,0.13263 1.03157,0.13263 0.50104,0 0.8842,-0.0868 1.14946,-0.26035 0.26853,-0.17356 0.4028,-0.42245 0.40281,-0.74666 -1e-5,-0.33403 -0.13755,-0.58619 -0.41263,-0.75648 -0.27182,-0.17356 -0.67462,-0.26035 -1.20841,-0.26035 l -0.75649,0 0,-1.21823 0.79578,0 c 0.47485,0 0.82853,-0.0737 1.06105,-0.22106 0.23251,-0.15063 0.34876,-0.37823 0.34877,-0.6828 -10e-6,-0.28163 -0.11299,-0.4994 -0.33895,-0.65332 -0.22596,-0.15392 -0.54526,-0.23087 -0.95788,-0.23088 -0.30457,10e-6 -0.6124,0.0344 -0.9235,0.10316 -0.31111,0.0688 -0.62059,0.17029 -0.92842,0.30456 l 0,-1.38526 c 0.37333,-0.10478 0.74339,-0.18338 1.11017,-0.23578 0.36678,-0.0524 0.72701,-0.0786 1.08069,-0.0786 0.95297,1e-5 1.66525,0.1572 2.13683,0.47158 0.47484,0.31111 0.71226,0.78105 0.71227,1.40981 -10e-6,0.42901 -0.11299,0.78105 -0.33894,1.05613 -0.22597,0.27182 -0.56001,0.46339 -1.0021,0.57473" style="-inkscape-font-specification:Sans Bold" transform="rotate(60 29.81 -206.76)"/><path d="m 442.49452,-302.36213 c 0,-0.91695 -0.0868,-1.56209 -0.26035,-1.93542 -0.17029,-0.3766 -0.45848,-0.5649 -0.86455,-0.56491 -0.40608,10e-6 -0.69591,0.18831 -0.86947,0.56491 -0.17357,0.37333 -0.26035,1.01847 -0.26035,1.93542 0,0.92678 0.0868,1.58011 0.26035,1.95998 0.17356,0.37988 0.46339,0.56982 0.86947,0.56982 0.4028,0 0.69098,-0.18994 0.86455,-0.56982 0.17356,-0.37987 0.26035,-1.0332 0.26035,-1.95998 m 1.89121,0.0147 c 0,1.21496 -0.26199,2.1532 -0.78596,2.81471 -0.52397,0.65824 -1.26736,0.98736 -2.23015,0.98736 -0.96608,0 -1.7111,-0.32912 -2.23507,-0.98736 -0.52397,-0.66151 -0.78596,-1.59975 -0.78596,-2.81471 0,-1.21823 0.26199,-2.15647 0.78596,-2.81472 0.52397,-0.6615 1.26899,-0.99226 2.23507,-0.99227 0.96279,1e-5 1.70618,0.33077 2.23015,0.99227 0.52397,0.65825 0.78596,1.59649 0.78596,2.81472" style="-inkscape-font-specification:Sans Bold" transform="rotate(60 29.81 -206.76)"/></g><g style="line-height:125%" font-size="10.06" font-weight="700" letter-spacing="0" word-spacing="0" fill="#e36a5c" font-family="Sans"><path d="m 405.66565,-375.55453 3.22734,0 0,1.39016 -5.32978,0 0,-1.39016 2.67717,-2.36279 c 0.23906,-0.21613 0.4159,-0.42736 0.53052,-0.63368 0.11462,-0.20631 0.17192,-0.42081 0.17193,-0.6435 -1e-5,-0.34385 -0.11626,-0.62057 -0.34877,-0.83017 -0.22924,-0.20958 -0.53544,-0.31438 -0.91859,-0.31438 -0.29474,0 -0.61731,0.0639 -0.96771,0.19157 -0.35041,0.12445 -0.72538,0.31112 -1.1249,0.56 l 0,-1.61121 c 0.42572,-0.14081 0.84654,-0.24725 1.26244,-0.3193 0.4159,-0.0753 0.82362,-0.11297 1.22315,-0.11298 0.87765,10e-6 1.55881,0.19322 2.04349,0.57964 0.48795,0.38644 0.73192,0.92515 0.73193,1.61613 -10e-6,0.39953 -0.10317,0.77286 -0.30948,1.11999 -0.20631,0.34386 -0.64023,0.80561 -1.30174,1.38525 l -1.567,1.37543" style="-inkscape-font-specification:Sans Bold" transform="rotate(70 10.179 -181.817)"/><path d="m 414.38978,-377.83872 c 0,-0.91695 -0.0868,-1.56209 -0.26034,-1.93543 -0.1703,-0.37659 -0.45848,-0.5649 -0.86456,-0.5649 -0.40608,0 -0.6959,0.18831 -0.86947,0.5649 -0.17356,0.37334 -0.26035,1.01848 -0.26034,1.93543 -10e-6,0.92678 0.0868,1.5801 0.26034,1.95998 0.17357,0.37988 0.46339,0.56982 0.86947,0.56982 0.4028,0 0.69099,-0.18994 0.86456,-0.56982 0.17356,-0.37988 0.26034,-1.0332 0.26034,-1.95998 m 1.89122,0.0147 c -1e-5,1.21497 -0.262,2.1532 -0.78596,2.81472 -0.52398,0.65824 -1.26736,0.98736 -2.23016,0.98736 -0.96608,0 -1.7111,-0.32912 -2.23507,-0.98736 -0.52397,-0.66152 -0.78596,-1.59975 -0.78596,-2.81472 0,-1.21823 0.26199,-2.15646 0.78596,-2.81471 0.52397,-0.66151 1.26899,-0.99226 2.23507,-0.99227 0.9628,10e-6 1.70618,0.33076 2.23016,0.99227 0.52396,0.65825 0.78595,1.59648 0.78596,2.81471" style="-inkscape-font-specification:Sans Bold" transform="rotate(70 10.179 -181.817)"/></g><g style="line-height:125%" font-size="10.06" font-weight="700" letter-spacing="0" word-spacing="0" fill="#e36a5c" font-family="Sans"><path d="m 358.71309,-443.93224 1.67016,0 0,-4.74031 -1.71437,0.35368 0,-1.287 1.70454,-0.35368 1.79788,0 0,6.02731 1.67016,0 0,1.30666 -5.12837,0 0,-1.30666" style="-inkscape-font-specification:Sans Bold" transform="rotate(80 -5.092 -162.415)"/><path d="m 369.15651,-446.29993 c -1e-5,-0.91695 -0.0868,-1.56209 -0.26035,-1.93543 -0.1703,-0.3766 -0.45848,-0.5649 -0.86456,-0.5649 -0.40608,0 -0.6959,0.1883 -0.86946,0.5649 -0.17357,0.37334 -0.26035,1.01848 -0.26035,1.93543 0,0.92677 0.0868,1.5801 0.26035,1.95998 0.17356,0.37988 0.46338,0.56982 0.86946,0.56982 0.4028,0 0.69099,-0.18994 0.86456,-0.56982 0.17356,-0.37988 0.26034,-1.03321 0.26035,-1.95998 m 1.89121,0.0147 c -1e-5,1.21496 -0.26199,2.1532 -0.78596,2.81471 -0.52398,0.65825 -1.26736,0.98736 -2.23016,0.98737 -0.96607,-1e-5 -1.71109,-0.32912 -2.23506,-0.98737 -0.52398,-0.66151 -0.78596,-1.59975 -0.78596,-2.81471 0,-1.21823 0.26198,-2.15647 0.78596,-2.81471 0.52397,-0.66151 1.26899,-0.99227 2.23506,-0.99227 0.9628,0 1.70618,0.33076 2.23016,0.99227 0.52397,0.65824 0.78595,1.59648 0.78596,2.81471" style="-inkscape-font-specification:Sans Bold" transform="rotate(80 -5.092 -162.415)"/></g><g style="line-height:125%" font-size="40.241" font-weight="700" letter-spacing="0" word-spacing="0" fill="#e36a5c" font-family="Sans" text-anchor="middle"><path d="m 311.4539,-512.53622 c 0,-1.28372 -0.1215,-2.18692 -0.36449,-2.70959 -0.23841,-0.52724 -0.64187,-0.79086 -1.21037,-0.79087 -0.56852,1e-5 -0.97427,0.26363 -1.21725,0.79087 -0.243,0.52267 -0.3645,1.42587 -0.36449,2.70959 -1e-5,1.29749 0.12149,2.21215 0.36449,2.74398 0.24298,0.53183 0.64873,0.79775 1.21725,0.79775 0.56392,0 0.96738,-0.26592 1.21037,-0.79775 0.24299,-0.53183 0.36449,-1.44649 0.36449,-2.74398 m 2.6477,0.0206 c -1e-5,1.70095 -0.36679,3.01448 -1.10034,3.9406 -0.73357,0.92154 -1.77431,1.38231 -3.12222,1.38231 -1.35251,0 -2.39554,-0.46077 -3.1291,-1.38231 -0.73356,-0.92612 -1.10034,-2.23965 -1.10034,-3.9406 0,-1.70552 0.36678,-3.01905 1.10034,-3.94059 0.73356,-0.92612 1.77659,-1.38918 3.1291,-1.38919 1.34791,10e-6 2.38865,0.46307 3.12222,1.38919 0.73355,0.92154 1.10033,2.23507 1.10034,3.94059" style="text-align:center;-inkscape-font-specification:Sans Bold" font-size="14.084" transform="rotate(90 -17.479 -146.676)"/><path d="m 304.06589,-497.75203 c 0.4945,0.12772 0.86947,0.35041 1.12491,0.66806 0.2587,0.31439 0.38806,0.71556 0.38806,1.2035 0,0.72701 -0.27836,1.28046 -0.83508,1.66034 -0.55672,0.3766 -1.36888,0.56491 -2.43647,0.56491 -0.3766,0 -0.75485,-0.0311 -1.13472,-0.0933 -0.37661,-0.0589 -0.74994,-0.149 -1.11999,-0.27017 l 0,-1.45893 c 0.35368,0.17684 0.70408,0.31111 1.05121,0.4028 0.35041,0.0884 0.69427,0.13263 1.03157,0.13263 0.50105,0 0.8842,-0.0868 1.14947,-0.26035 0.26853,-0.17356 0.4028,-0.42245 0.4028,-0.74666 0,-0.33403 -0.13754,-0.58619 -0.41263,-0.75648 -0.27181,-0.17357 -0.67461,-0.26035 -1.20841,-0.26035 l -0.75648,0 0,-1.21824 0.79578,0 c 0.47485,10e-6 0.82853,-0.0737 1.06104,-0.22105 0.23251,-0.15064 0.34877,-0.37824 0.34877,-0.6828 0,-0.28163 -0.11298,-0.49941 -0.33894,-0.65333 -0.22597,-0.15391 -0.54526,-0.23087 -0.95789,-0.23087 -0.30456,0 -0.61239,0.0344 -0.9235,0.10315 -0.31111,0.0688 -0.62058,0.1703 -0.92841,0.30456 l 0,-1.38525 c 0.37333,-0.10479 0.74338,-0.18338 1.11016,-0.23579 0.36678,-0.0524 0.72701,-0.0786 1.0807,-0.0786 0.95297,0 1.66524,0.1572 2.13682,0.47157 0.47485,0.31112 0.71227,0.78105 0.71228,1.40981 -1e-5,0.42901 -0.11299,0.78106 -0.33895,1.05614 -0.22597,0.27181 -0.56,0.46339 -1.0021,0.57473" style="text-align:center;-inkscape-font-specification:Sans Bold" font-size="10.06" transform="rotate(90 -17.479 -146.676)"/><path d="m 310.01462,-497.418 c -0.33076,0 -0.57965,0.10807 -0.74666,0.32421 -0.16375,0.21287 -0.24562,0.5338 -0.24562,0.9628 0,0.429 0.0819,0.75157 0.24562,0.96771 0.16701,0.21286 0.4159,0.3193 0.74666,0.31929 0.33403,1e-5 0.58291,-0.10643 0.74666,-0.31929 0.16701,-0.21614 0.25052,-0.53871 0.25052,-0.96771 0,-0.429 -0.0835,-0.74993 -0.25052,-0.9628 -0.16375,-0.21614 -0.41263,-0.32421 -0.74666,-0.32421 m 2.33822,-3.52208 0,1.35578 c -0.31111,-0.14736 -0.60421,-0.25543 -0.87929,-0.3242 -0.27509,-0.072 -0.54362,-0.10807 -0.80561,-0.10807 -0.56327,0 -1.0021,0.15719 -1.31648,0.47157 -0.31438,0.31111 -0.49777,0.7745 -0.55017,1.39016 0.21614,-0.16046 0.45029,-0.27999 0.70245,-0.35859 0.25216,-0.0819 0.52725,-0.1228 0.82526,-0.1228 0.74993,0 1.35414,0.21941 1.81262,0.65824 0.46174,0.43883 0.69262,1.01356 0.69262,1.72419 0,0.78596 -0.25708,1.41636 -0.77122,1.89121 -0.51415,0.47158 -1.2035,0.70737 -2.06805,0.70737 -0.95298,0 -1.69145,-0.32094 -2.21542,-0.9628 -0.5207,-0.64514 -0.78105,-1.55882 -0.78105,-2.74103 0,-1.21168 0.30456,-2.16302 0.91368,-2.85401 0.61239,-0.69426 1.45074,-1.04139 2.51506,-1.0414 0.33731,10e-6 0.66479,0.0262 0.98245,0.0786 0.31766,0.0524 0.63204,0.131 0.94315,0.23578" style="text-align:center;-inkscape-font-specification:Sans Bold" font-size="10.06" transform="rotate(90 -17.479 -146.676)"/><path d="m 317.99701,-497.47203 c -10e-6,-0.91695 -0.0868,-1.56209 -0.26035,-1.93543 -0.1703,-0.3766 -0.45848,-0.5649 -0.86456,-0.5649 -0.40608,0 -0.6959,0.1883 -0.86946,0.5649 -0.17357,0.37334 -0.26035,1.01848 -0.26035,1.93543 0,0.92677 0.0868,1.5801 0.26035,1.95998 0.17356,0.37988 0.46338,0.56982 0.86946,0.56982 0.4028,0 0.69099,-0.18994 0.86456,-0.56982 0.17356,-0.37988 0.26034,-1.03321 0.26035,-1.95998 m 1.89121,0.0147 c -10e-6,1.21497 -0.26199,2.1532 -0.78596,2.81472 -0.52398,0.65824 -1.26736,0.98736 -2.23016,0.98736 -0.96607,0 -1.7111,-0.32912 -2.23507,-0.98736 -0.52397,-0.66152 -0.78595,-1.59975 -0.78595,-2.81472 0,-1.21823 0.26198,-2.15646 0.78595,-2.81471 0.52397,-0.66151 1.269,-0.99227 2.23507,-0.99227 0.9628,0 1.70618,0.33076 2.23016,0.99227 0.52397,0.65825 0.78595,1.59648 0.78596,2.81471" style="text-align:center;-inkscape-font-specification:Sans Bold" font-size="10.06" transform="rotate(90 -17.479 -146.676)"/></g><g style="line-height:125%" font-size="14.084" font-weight="700" letter-spacing="0" word-spacing="0" fill="#e36a5c" font-family="Sans"><path d="m -353.13799,-468.84009 4.51828,0 0,1.94623 -7.46169,0 0,-1.94623 3.74804,-3.3079 c 0.33468,-0.30259 0.58226,-0.59831 0.74273,-0.88715 0.16046,-0.28884 0.24069,-0.58914 0.2407,-0.90091 -1e-5,-0.48139 -0.16276,-0.8688 -0.48828,-1.16223 -0.32094,-0.29342 -0.74961,-0.44013 -1.28602,-0.44014 -0.41263,10e-6 -0.86423,0.0894 -1.3548,0.26821 -0.49057,0.17423 -1.01552,0.43556 -1.57486,0.78399 l 0,-2.2557 c 0.59602,-0.19713 1.18516,-0.34614 1.76742,-0.44701 0.58226,-0.10544 1.15307,-0.15817 1.71241,-0.15818 1.22871,10e-6 2.18234,0.27052 2.86089,0.81151 0.68312,0.54101 1.02468,1.2952 1.02469,2.26257 -10e-6,0.55935 -0.14443,1.08201 -0.43326,1.56799 -0.28885,0.48141 -0.89633,1.12786 -1.82244,1.93935 l -2.19381,1.9256" style="-inkscape-font-specification:Sans Bold" transform="rotate(180 -82.077 -64.599)"/><path d="m -346.46029,-477.16142 7.73678,0 0,1.49234 -4.00249,8.77522 -2.57893,0 3.7893,-8.32133 -4.94466,0 0,-1.94623" style="-inkscape-font-specification:Sans Bold" transform="rotate(180 -82.077 -64.599)"/><path d="m -331.13115,-472.03796 c -1e-5,-1.28372 -0.1215,-2.18692 -0.36449,-2.70959 -0.23841,-0.52724 -0.64187,-0.79086 -1.21038,-0.79087 -0.56851,10e-6 -0.97426,0.26363 -1.21725,0.79087 -0.24299,0.52267 -0.36449,1.42587 -0.36449,2.70959 0,1.29749 0.1215,2.21215 0.36449,2.74398 0.24299,0.53183 0.64874,0.79775 1.21725,0.79775 0.56392,0 0.96738,-0.26592 1.21038,-0.79775 0.24299,-0.53183 0.36448,-1.44649 0.36449,-2.74398 m 2.6477,0.0206 c -10e-6,1.70095 -0.36679,3.01448 -1.10035,3.9406 -0.73356,0.92154 -1.7743,1.38231 -3.12222,1.38231 -1.3525,0 -2.39553,-0.46077 -3.12909,-1.38231 -0.73356,-0.92612 -1.10034,-2.23965 -1.10034,-3.9406 0,-1.70552 0.36678,-3.01905 1.10034,-3.94059 0.73356,-0.92612 1.77659,-1.38918 3.12909,-1.38919 1.34792,10e-6 2.38866,0.46307 3.12222,1.38919 0.73356,0.92154 1.10034,2.23507 1.10035,3.94059" style="-inkscape-font-specification:Sans Bold" transform="rotate(180 -82.077 -64.599)"/></g><g style="line-height:125%" font-size="10.06" font-weight="700" letter-spacing="0" word-spacing="0" fill="#e36a5c" font-family="Sans"><path d="m -397.87619,-404.63708 3.22734,0 0,1.39016 -5.32978,0 0,-1.39016 2.67717,-2.36279 c 0.23906,-0.21613 0.4159,-0.42736 0.53052,-0.63368 0.11462,-0.20631 0.17193,-0.42081 0.17193,-0.6435 0,-0.34385 -0.11626,-0.62057 -0.34877,-0.83017 -0.22924,-0.20958 -0.53544,-0.31438 -0.91859,-0.31438 -0.29474,0 -0.61731,0.0639 -0.96771,0.19157 -0.35041,0.12445 -0.72537,0.31112 -1.1249,0.56 l 0,-1.61121 c 0.42572,-0.14082 0.84654,-0.24725 1.26244,-0.3193 0.4159,-0.0753 0.82362,-0.11297 1.22315,-0.11298 0.87765,1e-5 1.55881,0.19322 2.04349,0.57964 0.48795,0.38644 0.73192,0.92515 0.73193,1.61613 -10e-6,0.39953 -0.10317,0.77286 -0.30947,1.11999 -0.20632,0.34386 -0.64024,0.80561 -1.30175,1.38525 l -1.567,1.37543" style="-inkscape-font-specification:Sans Bold" transform="rotate(-170 -87.73 -57.418)"/><path d="m -390.13942,-406.86724 c -0.33076,10e-6 -0.57964,0.10807 -0.74666,0.32421 -0.16374,0.21287 -0.24561,0.5338 -0.24561,0.9628 0,0.429 0.0819,0.75157 0.24561,0.96771 0.16702,0.21286 0.4159,0.3193 0.74666,0.3193 0.33403,0 0.58292,-0.10644 0.74666,-0.3193 0.16702,-0.21614 0.25052,-0.53871 0.25053,-0.96771 -1e-5,-0.429 -0.0835,-0.74993 -0.25053,-0.9628 -0.16374,-0.21614 -0.41263,-0.3242 -0.74666,-0.32421 m 2.33823,-3.52207 0,1.35577 c -0.31111,-0.14736 -0.60421,-0.25543 -0.87929,-0.3242 -0.27509,-0.072 -0.54363,-0.10807 -0.80561,-0.10807 -0.56327,0 -1.0021,0.15719 -1.31648,0.47157 -0.31438,0.31112 -0.49777,0.7745 -0.55017,1.39017 0.21614,-0.16047 0.45029,-0.28 0.70245,-0.3586 0.25216,-0.0819 0.52724,-0.1228 0.82526,-0.1228 0.74993,0 1.35413,0.21941 1.81261,0.65824 0.46175,0.43883 0.69262,1.01356 0.69263,1.72419 -10e-6,0.78596 -0.25708,1.41637 -0.77122,1.89121 -0.51415,0.47158 -1.2035,0.70737 -2.06805,0.70737 -0.95298,0 -1.69145,-0.32094 -2.21542,-0.9628 -0.5207,-0.64514 -0.78105,-1.55882 -0.78105,-2.74103 0,-1.21168 0.30456,-2.16302 0.91368,-2.85401 0.61239,-0.69426 1.45074,-1.04139 2.51506,-1.0414 0.33731,1e-5 0.66479,0.0262 0.98245,0.0786 0.31765,0.0524 0.63204,0.131 0.94315,0.23579" style="-inkscape-font-specification:Sans Bold" transform="rotate(-170 -87.73 -57.418)"/><path d="m -382.15703,-406.92127 c 0,-0.91695 -0.0868,-1.56209 -0.26035,-1.93543 -0.17029,-0.37659 -0.45847,-0.5649 -0.86455,-0.5649 -0.40608,0 -0.6959,0.18831 -0.86947,0.5649 -0.17356,0.37334 -0.26035,1.01848 -0.26034,1.93543 -10e-6,0.92678 0.0868,1.5801 0.26034,1.95998 0.17357,0.37988 0.46339,0.56982 0.86947,0.56982 0.4028,0 0.69098,-0.18994 0.86455,-0.56982 0.17357,-0.37988 0.26035,-1.0332 0.26035,-1.95998 m 1.89122,0.0147 c -1e-5,1.21497 -0.262,2.1532 -0.78596,2.81472 -0.52398,0.65824 -1.26736,0.98736 -2.23016,0.98736 -0.96608,0 -1.7111,-0.32912 -2.23507,-0.98736 -0.52397,-0.66152 -0.78596,-1.59975 -0.78596,-2.81472 0,-1.21823 0.26199,-2.15646 0.78596,-2.81471 0.52397,-0.66151 1.26899,-0.99226 2.23507,-0.99227 0.9628,1e-5 1.70618,0.33076 2.23016,0.99227 0.52396,0.65825 0.78595,1.59648 0.78596,2.81471" style="-inkscape-font-specification:Sans Bold" transform="rotate(-170 -87.73 -57.418)"/></g><g style="line-height:125%" font-size="10.06" font-weight="700" letter-spacing="0" word-spacing="0" fill="#e36a5c" font-family="Sans"><path d="m -435.89667,-332.7478 3.22734,0 0,1.39016 -5.32978,0 0,-1.39016 2.67717,-2.36279 c 0.23906,-0.21613 0.4159,-0.42736 0.53052,-0.63368 0.11462,-0.2063 0.17193,-0.42081 0.17193,-0.6435 0,-0.34385 -0.11626,-0.62057 -0.34877,-0.83017 -0.22924,-0.20958 -0.53543,-0.31437 -0.91859,-0.31438 -0.29473,1e-5 -0.6173,0.0639 -0.96771,0.19158 -0.3504,0.12445 -0.72537,0.31111 -1.1249,0.55999 l 0,-1.61121 c 0.42573,-0.14081 0.84654,-0.24724 1.26245,-0.3193 0.4159,-0.0753 0.82361,-0.11297 1.22314,-0.11298 0.87765,10e-6 1.55882,0.19322 2.0435,0.57964 0.48794,0.38644 0.73191,0.92515 0.73192,1.61613 -10e-6,0.39954 -0.10316,0.77287 -0.30947,1.11999 -0.20632,0.34386 -0.64024,0.80561 -1.30175,1.38525 l -1.567,1.37543" style="-inkscape-font-specification:Sans Bold" transform="rotate(-160 -93.468 -50.126)"/><path d="m -430.73391,-338.69161 4.70102,0 0,1.39016 -3.19296,0 0,1.13473 c 0.14409,-0.0393 0.28818,-0.0688 0.43228,-0.0884 0.14736,-0.0229 0.29964,-0.0344 0.45684,-0.0344 0.89402,0 1.58992,0.22433 2.0877,0.67297 0.49777,0.44538 0.74665,1.0676 0.74666,1.86665 -1e-5,0.79251 -0.27182,1.41309 -0.81543,1.86174 -0.54035,0.44865 -1.29193,0.67298 -2.25472,0.67298 -0.41591,0 -0.82853,-0.0409 -1.23789,-0.12281 -0.40608,-0.0786 -0.81052,-0.19976 -1.21332,-0.3635 l 0,-1.48841 c 0.39953,0.22924 0.77777,0.40117 1.13473,0.51578 0.36023,0.11462 0.69917,0.17193 1.01683,0.17193 0.45847,0 0.81871,-0.11134 1.0807,-0.33403 0.26525,-0.22596 0.39788,-0.53052 0.39789,-0.91368 -1e-5,-0.38642 -0.13264,-0.69098 -0.39789,-0.91367 -0.26199,-0.22269 -0.62223,-0.33403 -1.0807,-0.33403 -0.27181,0 -0.56163,0.036 -0.86946,0.10806 -0.30784,0.0688 -0.6386,0.17685 -0.99228,0.32421 l 0,-4.12628" style="-inkscape-font-specification:Sans Bold" transform="rotate(-160 -93.468 -50.126)"/><path d="m -420.1775,-335.03199 c -10e-6,-0.91695 -0.0868,-1.56209 -0.26035,-1.93542 -0.1703,-0.3766 -0.45848,-0.5649 -0.86456,-0.56491 -0.40608,1e-5 -0.6959,0.18831 -0.86946,0.56491 -0.17357,0.37333 -0.26035,1.01847 -0.26035,1.93542 0,0.92678 0.0868,1.58011 0.26035,1.95998 0.17356,0.37988 0.46338,0.56982 0.86946,0.56982 0.4028,0 0.69099,-0.18994 0.86456,-0.56982 0.17356,-0.37987 0.26034,-1.0332 0.26035,-1.95998 m 1.89121,0.0147 c -10e-6,1.21496 -0.26199,2.1532 -0.78596,2.81471 -0.52398,0.65824 -1.26736,0.98736 -2.23016,0.98736 -0.96607,0 -1.7111,-0.32912 -2.23507,-0.98736 -0.52397,-0.66151 -0.78595,-1.59975 -0.78595,-2.81471 0,-1.21823 0.26198,-2.15647 0.78595,-2.81472 0.52397,-0.6615 1.269,-0.99226 2.23507,-0.99227 0.9628,10e-6 1.70618,0.33077 2.23016,0.99227 0.52397,0.65825 0.78595,1.59649 0.78596,2.81472" style="-inkscape-font-specification:Sans Bold" transform="rotate(-160 -93.468 -50.126)"/></g><g style="line-height:125%" font-size="10.06" font-weight="700" letter-spacing="0" word-spacing="0" fill="#e36a5c" font-family="Sans"><path d="m -459.81134,-255.81642 3.22734,0 0,1.39017 -5.32978,0 0,-1.39017 2.67717,-2.36279 c 0.23906,-0.21613 0.4159,-0.42736 0.53052,-0.63367 0.11462,-0.20631 0.17193,-0.42081 0.17193,-0.64351 0,-0.34385 -0.11626,-0.62057 -0.34877,-0.83017 -0.22924,-0.20958 -0.53544,-0.31437 -0.91859,-0.31438 -0.29474,10e-6 -0.61731,0.0639 -0.96771,0.19158 -0.35041,0.12445 -0.72537,0.31111 -1.1249,0.55999 l 0,-1.61121 c 0.42572,-0.14081 0.84654,-0.24724 1.26244,-0.3193 0.4159,-0.0753 0.82362,-0.11297 1.22315,-0.11298 0.87765,10e-6 1.55881,0.19322 2.04349,0.57965 0.48795,0.38643 0.73192,0.92514 0.73193,1.61612 -10e-6,0.39954 -0.10317,0.77287 -0.30948,1.11999 -0.20631,0.34386 -0.64023,0.80561 -1.30174,1.38525 l -1.567,1.37543" style="-inkscape-font-specification:Sans Bold" transform="rotate(-150 -99.387 -42.606)"/><path d="m -452.01071,-260.20305 -2.07296,3.07015 2.07296,0 0,-3.07015 m -0.31438,-1.55718 2.10244,0 0,4.62733 1.04631,0 0,1.37052 -1.04631,0 0,1.33613 -1.78806,0 0,-1.33613 -3.2519,0 0,-1.62104 2.93752,-4.37681" style="-inkscape-font-specification:Sans Bold" transform="rotate(-150 -99.387 -42.606)"/><path d="m -444.09218,-258.10061 c 0,-0.91695 -0.0868,-1.56209 -0.26035,-1.93542 -0.17029,-0.3766 -0.45847,-0.5649 -0.86455,-0.56491 -0.40608,10e-6 -0.6959,0.18831 -0.86947,0.56491 -0.17356,0.37333 -0.26035,1.01847 -0.26034,1.93542 -1e-5,0.92678 0.0868,1.58011 0.26034,1.95998 0.17357,0.37989 0.46339,0.56983 0.86947,0.56982 0.4028,1e-5 0.69098,-0.18993 0.86455,-0.56982 0.17357,-0.37987 0.26035,-1.0332 0.26035,-1.95998 m 1.89122,0.0147 c -10e-6,1.21496 -0.262,2.1532 -0.78596,2.81471 -0.52398,0.65824 -1.26737,0.98736 -2.23016,0.98736 -0.96608,0 -1.7111,-0.32912 -2.23507,-0.98736 -0.52397,-0.66151 -0.78596,-1.59975 -0.78596,-2.81471 0,-1.21823 0.26199,-2.15647 0.78596,-2.81472 0.52397,-0.6615 1.26899,-0.99226 2.23507,-0.99227 0.96279,10e-6 1.70618,0.33077 2.23016,0.99227 0.52396,0.65825 0.78595,1.59649 0.78596,2.81472" style="-inkscape-font-specification:Sans Bold" transform="rotate(-150 -99.387 -42.606)"/></g><g style="line-height:125%" font-size="10.06" font-weight="700" letter-spacing="0" word-spacing="0" fill="#e36a5c" font-family="Sans"><path d="m -471.25727,-175.67933 3.22735,0 0,1.39016 -5.32978,0 0,-1.39016 2.67717,-2.36279 c 0.23905,-0.21613 0.4159,-0.42736 0.53052,-0.63368 0.11461,-0.20631 0.17192,-0.42081 0.17193,-0.6435 -1e-5,-0.34385 -0.11626,-0.62058 -0.34877,-0.83017 -0.22924,-0.20958 -0.53544,-0.31438 -0.91859,-0.31438 -0.29474,0 -0.61731,0.0639 -0.96771,0.19157 -0.35041,0.12445 -0.72538,0.31112 -1.12491,0.56 l 0,-1.61122 c 0.42573,-0.14081 0.84655,-0.24724 1.26245,-0.31929 0.4159,-0.0753 0.82362,-0.11298 1.22315,-0.11298 0.87765,0 1.55881,0.19322 2.04349,0.57964 0.48794,0.38644 0.73192,0.92515 0.73192,1.61613 0,0.39953 -0.10316,0.77286 -0.30947,1.11999 -0.20632,0.34386 -0.64023,0.80561 -1.30174,1.38525 l -1.56701,1.37543" style="-inkscape-font-specification:Sans Bold" transform="rotate(-140 -105.59 -34.725)"/><path d="m -462.47418,-178.24352 c 0.49449,0.12772 0.86946,0.35041 1.1249,0.66806 0.25871,0.31439 0.38806,0.71555 0.38807,1.2035 -1e-5,0.72701 -0.27837,1.28046 -0.83508,1.66034 -0.55673,0.3766 -1.36888,0.56491 -2.43647,0.56491 -0.37661,0 -0.75485,-0.0311 -1.13473,-0.0933 -0.37661,-0.0589 -0.74994,-0.149 -1.11999,-0.27017 l 0,-1.45894 c 0.35368,0.17685 0.70409,0.31111 1.05122,0.40281 0.3504,0.0884 0.69426,0.13263 1.03157,0.13263 0.50104,0 0.8842,-0.0868 1.14946,-0.26035 0.26853,-0.17356 0.4028,-0.42245 0.40281,-0.74666 -1e-5,-0.33403 -0.13755,-0.58619 -0.41263,-0.75649 -0.27182,-0.17356 -0.67462,-0.26034 -1.20841,-0.26034 l -0.75649,0 0,-1.21824 0.79578,0 c 0.47485,1e-5 0.82853,-0.0737 1.06105,-0.22105 0.23251,-0.15064 0.34876,-0.37824 0.34877,-0.6828 -10e-6,-0.28163 -0.11299,-0.49941 -0.33895,-0.65333 -0.22596,-0.15391 -0.54526,-0.23087 -0.95788,-0.23087 -0.30457,0 -0.6124,0.0344 -0.9235,0.10315 -0.31111,0.0688 -0.62059,0.1703 -0.92842,0.30456 l 0,-1.38525 c 0.37333,-0.10479 0.74339,-0.18338 1.11017,-0.23579 0.36678,-0.0524 0.72701,-0.0786 1.08069,-0.0786 0.95297,0 1.66525,0.1572 2.13683,0.47157 0.47484,0.31112 0.71226,0.78105 0.71227,1.40981 -10e-6,0.42901 -0.11299,0.78106 -0.33894,1.05614 -0.22597,0.27181 -0.56001,0.46339 -1.0021,0.57473" style="-inkscape-font-specification:Sans Bold" transform="rotate(-140 -105.59 -34.725)"/><path d="m -455.5381,-177.96352 c 0,-0.91695 -0.0868,-1.56209 -0.26035,-1.93543 -0.17029,-0.3766 -0.45848,-0.5649 -0.86455,-0.5649 -0.40608,0 -0.69591,0.1883 -0.86947,0.5649 -0.17357,0.37334 -0.26035,1.01848 -0.26035,1.93543 0,0.92677 0.0868,1.5801 0.26035,1.95998 0.17356,0.37988 0.46339,0.56982 0.86947,0.56982 0.4028,0 0.69098,-0.18994 0.86455,-0.56982 0.17356,-0.37988 0.26035,-1.03321 0.26035,-1.95998 m 1.89121,0.0147 c 0,1.21497 -0.26199,2.1532 -0.78596,2.81472 -0.52397,0.65824 -1.26736,0.98736 -2.23015,0.98736 -0.96608,0 -1.7111,-0.32912 -2.23507,-0.98736 -0.52397,-0.66152 -0.78596,-1.59975 -0.78596,-2.81472 0,-1.21823 0.26199,-2.15647 0.78596,-2.81471 0.52397,-0.66151 1.26899,-0.99227 2.23507,-0.99227 0.96279,0 1.70618,0.33076 2.23015,0.99227 0.52397,0.65824 0.78596,1.59648 0.78596,2.81471" style="-inkscape-font-specification:Sans Bold" transform="rotate(-140 -105.59 -34.725)"/></g><g style="line-height:125%" font-size="10.06" font-weight="700" letter-spacing="0" word-spacing="0" fill="#e36a5c" font-family="Sans"><path d="m -467.4888,-94.905072 3.22734,0 0,1.390164 -5.32978,0 0,-1.390164 2.67717,-2.362787 c 0.23906,-0.216134 0.4159,-0.42736 0.53052,-0.633679 0.11462,-0.206309 0.17193,-0.42081 0.17193,-0.643503 0,-0.343851 -0.11626,-0.620574 -0.34877,-0.830169 -0.22924,-0.209582 -0.53544,-0.314377 -0.91859,-0.314383 -0.29474,6e-6 -0.61731,0.06387 -0.96771,0.191577 -0.35041,0.12445 -0.72537,0.311115 -1.1249,0.559996 l 0,-1.61121 c 0.42572,-0.14082 0.84654,-0.24725 1.26244,-0.3193 0.4159,-0.0753 0.82362,-0.11297 1.22315,-0.11298 0.87765,1e-5 1.55881,0.19322 2.04349,0.57964 0.48795,0.38644 0.73192,0.925147 0.73193,1.616129 -10e-6,0.399534 -0.10317,0.772864 -0.30947,1.119991 -0.20632,0.34386 -0.64024,0.80561 -1.30175,1.385251 l -1.567,1.375427" style="-inkscape-font-specification:Sans Bold" transform="rotate(-130 -112.2 -26.325)"/><path d="m -460.49377,-94.905072 3.22734,0 0,1.390164 -5.32978,0 0,-1.390164 2.67717,-2.362787 c 0.23906,-0.216134 0.4159,-0.42736 0.53052,-0.633679 0.11462,-0.206309 0.17192,-0.42081 0.17193,-0.643503 -1e-5,-0.343851 -0.11626,-0.620574 -0.34877,-0.830169 -0.22924,-0.209582 -0.53544,-0.314377 -0.91859,-0.314383 -0.29474,6e-6 -0.61731,0.06387 -0.96771,0.191577 -0.35041,0.12445 -0.72538,0.311115 -1.1249,0.559996 l 0,-1.61121 c 0.42572,-0.14082 0.84654,-0.24725 1.26244,-0.3193 0.4159,-0.0753 0.82362,-0.11297 1.22315,-0.11298 0.87765,1e-5 1.55881,0.19322 2.04349,0.57964 0.48794,0.38644 0.73192,0.925147 0.73193,1.616129 -1e-5,0.399534 -0.10317,0.772864 -0.30948,1.119991 -0.20632,0.34386 -0.64023,0.80561 -1.30174,1.385251 l -1.567,1.375427" style="-inkscape-font-specification:Sans Bold" transform="rotate(-130 -112.2 -26.325)"/><path d="m -451.76964,-97.189263 c 0,-0.916947 -0.0868,-1.562087 -0.26035,-1.935422 -0.17029,-0.376599 -0.45847,-0.564902 -0.86455,-0.564908 -0.40608,6e-6 -0.6959,0.188309 -0.86947,0.564908 -0.17356,0.373335 -0.26035,1.018475 -0.26034,1.935422 -10e-6,0.926779 0.0868,1.580106 0.26034,1.959984 0.17357,0.379881 0.46339,0.569821 0.86947,0.569819 0.4028,2e-6 0.69098,-0.189938 0.86455,-0.569819 0.17357,-0.379878 0.26035,-1.033205 0.26035,-1.959984 m 1.89122,0.01474 c -10e-6,1.214963 -0.262,2.1532 -0.78596,2.814713 -0.52398,0.65824 -1.26736,0.98736 -2.23016,0.98736 -0.96608,0 -1.7111,-0.32912 -2.23507,-0.98736 -0.52397,-0.661513 -0.78596,-1.59975 -0.78596,-2.814713 0,-1.218231 0.26199,-2.156468 0.78596,-2.814713 0.52397,-0.661511 1.26899,-0.992261 2.23507,-0.992271 0.9628,1e-5 1.70618,0.33076 2.23016,0.992271 0.52396,0.658245 0.78595,1.596482 0.78596,2.814713" style="-inkscape-font-specification:Sans Bold" transform="rotate(-130 -112.2 -26.325)"/></g><g style="line-height:125%" font-size="10.06" font-weight="700" letter-spacing="0" word-spacing="0" fill="#e36a5c" font-family="Sans"><path d="m -450.81836,-16.150287 3.22734,0 0,1.390164 -5.32978,0 0,-1.390164 2.67717,-2.362787 c 0.23906,-0.216135 0.4159,-0.427361 0.53052,-0.633679 0.11462,-0.20631 0.17193,-0.420811 0.17193,-0.643504 0,-0.343851 -0.11626,-0.620573 -0.34877,-0.830168 -0.22924,-0.209583 -0.53544,-0.314377 -0.91859,-0.314383 -0.29473,6e-6 -0.6173,0.06386 -0.96771,0.191577 -0.35041,0.124449 -0.72537,0.311114 -1.1249,0.559995 l 0,-1.611214 c 0.42572,-0.140811 0.84654,-0.247242 1.26244,-0.319296 0.4159,-0.07531 0.82362,-0.112974 1.22315,-0.112981 0.87765,7e-6 1.55881,0.193222 2.04349,0.579644 0.48795,0.386436 0.73192,0.925144 0.73193,1.616127 -1e-5,0.399533 -0.10317,0.772863 -0.30947,1.11999 -0.20632,0.343861 -0.64024,0.805611 -1.30175,1.385252 l -1.567,1.375427" style="-inkscape-font-specification:Sans Bold" transform="rotate(-120 -119.373 -17.211)"/><path d="m -445.54262,-16.066779 1.67016,0 0,-4.740311 -1.71437,0.353681 0,-1.287007 1.70455,-0.353681 1.79788,0 0,6.027318 1.67016,0 0,1.306656 -5.12838,0 0,-1.306656" style="-inkscape-font-specification:Sans Bold" transform="rotate(-120 -119.373 -17.211)"/><path d="m -435.0992,-18.434478 c 0,-0.916947 -0.0868,-1.562087 -0.26034,-1.935423 -0.1703,-0.376599 -0.45848,-0.564901 -0.86456,-0.564907 -0.40608,6e-6 -0.6959,0.188308 -0.86946,0.564907 -0.17357,0.373336 -0.26036,1.018476 -0.26035,1.935423 -1e-5,0.926778 0.0868,1.580105 0.26035,1.959983 0.17356,0.379881 0.46338,0.569821 0.86946,0.56982 0.4028,10e-7 0.69099,-0.189939 0.86456,-0.56982 0.17356,-0.379878 0.26034,-1.033205 0.26034,-1.959983 m 1.89122,0.01474 c -10e-6,1.214963 -0.262,2.1532 -0.78596,2.814714 -0.52398,0.65824 -1.26736,0.98736 -2.23016,0.98736 -0.96607,0 -1.7111,-0.32912 -2.23507,-0.98736 -0.52397,-0.661514 -0.78596,-1.599751 -0.78596,-2.814714 0,-1.21823 0.26199,-2.156467 0.78596,-2.814713 0.52397,-0.661508 1.269,-0.992265 2.23507,-0.992272 0.9628,7e-6 1.70618,0.330764 2.23016,0.992272 0.52396,0.658246 0.78595,1.596483 0.78596,2.814713" style="-inkscape-font-specification:Sans Bold" transform="rotate(-120 -119.373 -17.211)"/></g><g style="line-height:125%" font-size="10.06" font-weight="700" letter-spacing="0" word-spacing="0" fill="#e36a5c" font-family="Sans"><path d="m -418.07553,56.98999 3.22734,0 0,1.390164 -5.32978,0 0,-1.390164 2.67717,-2.362787 c 0.23906,-0.216135 0.4159,-0.427361 0.53052,-0.633679 0.11462,-0.20631 0.17192,-0.420811 0.17193,-0.643504 -10e-6,-0.343851 -0.11626,-0.620574 -0.34877,-0.830168 -0.22924,-0.209583 -0.53544,-0.314377 -0.91859,-0.314383 -0.29474,6e-6 -0.61731,0.06386 -0.96771,0.191577 -0.35041,0.124449 -0.72538,0.311114 -1.1249,0.559995 l 0,-1.611214 c 0.42572,-0.140811 0.84654,-0.247242 1.26244,-0.319296 0.4159,-0.07531 0.82362,-0.112974 1.22315,-0.112981 0.87765,7e-6 1.55881,0.193222 2.04349,0.579644 0.48794,0.386436 0.73192,0.925144 0.73193,1.616127 -10e-6,0.399533 -0.10317,0.772863 -0.30948,1.11999 -0.20632,0.343861 -0.64023,0.805611 -1.30174,1.385252 l -1.567,1.375427" style="-inkscape-font-specification:Sans Bold" transform="rotate(-110 -127.31 -7.127)"/><path d="m -409.3514,54.705799 c 0,-0.916947 -0.0868,-1.562087 -0.26034,-1.935423 -0.1703,-0.376599 -0.45848,-0.564901 -0.86456,-0.564907 -0.40608,6e-6 -0.6959,0.188308 -0.86947,0.564907 -0.17356,0.373336 -0.26035,1.018476 -0.26034,1.935423 -10e-6,0.926778 0.0868,1.580105 0.26034,1.959983 0.17357,0.379881 0.46339,0.569821 0.86947,0.56982 0.4028,10e-7 0.69099,-0.189939 0.86456,-0.56982 0.17356,-0.379878 0.26034,-1.033205 0.26034,-1.959983 m 1.89122,0.01474 c -1e-5,1.214963 -0.262,2.1532 -0.78596,2.814713 -0.52398,0.658241 -1.26736,0.98736 -2.23016,0.987361 -0.96608,-1e-6 -1.7111,-0.32912 -2.23507,-0.987361 -0.52397,-0.661513 -0.78596,-1.59975 -0.78596,-2.814713 0,-1.21823 0.26199,-2.156467 0.78596,-2.814713 0.52397,-0.661508 1.26899,-0.992265 2.23507,-0.992272 0.9628,7e-6 1.70618,0.330764 2.23016,0.992272 0.52396,0.658246 0.78595,1.596483 0.78596,2.814713" style="-inkscape-font-specification:Sans Bold" transform="rotate(-110 -127.31 -7.127)"/><path d="m -402.35637,54.705799 c 0,-0.916947 -0.0868,-1.562087 -0.26035,-1.935423 -0.17029,-0.376599 -0.45848,-0.564901 -0.86455,-0.564907 -0.40608,6e-6 -0.6959,0.188308 -0.86947,0.564907 -0.17356,0.373336 -0.26035,1.018476 -0.26035,1.935423 0,0.926778 0.0868,1.580105 0.26035,1.959983 0.17357,0.379881 0.46339,0.569821 0.86947,0.56982 0.4028,10e-7 0.69098,-0.189939 0.86455,-0.56982 0.17357,-0.379878 0.26035,-1.033205 0.26035,-1.959983 m 1.89121,0.01474 c 0,1.214963 -0.26199,2.1532 -0.78595,2.814713 -0.52398,0.658241 -1.26737,0.98736 -2.23016,0.987361 -0.96608,-1e-6 -1.7111,-0.32912 -2.23507,-0.987361 -0.52397,-0.661513 -0.78596,-1.59975 -0.78596,-2.814713 0,-1.21823 0.26199,-2.156467 0.78596,-2.814713 0.52397,-0.661508 1.26899,-0.992265 2.23507,-0.992272 0.96279,7e-6 1.70618,0.330764 2.23016,0.992272 0.52396,0.658246 0.78595,1.596483 0.78595,2.814713" style="-inkscape-font-specification:Sans Bold" transform="rotate(-110 -127.31 -7.127)"/></g><g style="line-height:125%" font-size="10.06" font-weight="700" letter-spacing="0" word-spacing="0" fill="#e36a5c" font-family="Sans"><path d="m -377.4009,125.07024 1.67016,0 0,-4.74031 -1.71437,0.35368 0,-1.28701 1.70455,-0.35368 1.79788,0 0,6.02732 1.67016,0 0,1.30665 -5.12838,0 0,-1.30665" style="-inkscape-font-specification:Sans Bold" transform="rotate(-100 -136.282 4.273)"/><path d="m -370.5778,126.21479 0,-1.35578 c 0.30129,0.14082 0.58947,0.24725 0.86456,0.3193 0.27508,0.0688 0.54689,0.10315 0.81543,0.10315 0.56327,0 1.00209,-0.15555 1.31648,-0.46666 0.31438,-0.31438 0.49941,-0.77941 0.55508,-1.39508 -0.22269,0.16375 -0.46011,0.28655 -0.71227,0.36842 -0.25217,0.0819 -0.52561,0.12281 -0.82035,0.12281 -0.74993,0 -1.35578,-0.21778 -1.81752,-0.65333 -0.45848,-0.43882 -0.68772,-1.01519 -0.68772,-1.72911 0,-0.78923 0.25544,-1.42127 0.76631,-1.89612 0.51415,-0.47485 1.20186,-0.71227 2.06314,-0.71228 0.95625,1e-5 1.69636,0.32258 2.22033,0.96771 0.52397,0.64515 0.78596,1.55719 0.78596,2.73612 0,1.21169 -0.3062,2.16466 -0.91859,2.85892 -0.61239,0.69099 -1.45239,1.03649 -2.51997,1.03649 -0.34386,0 -0.67298,-0.0262 -0.98736,-0.0786 -0.31439,-0.0491 -0.62222,-0.12444 -0.92351,-0.22596 m 2.33332,-3.5319 c 0.33075,0 0.57964,-0.10643 0.74666,-0.3193 0.16701,-0.21613 0.25052,-0.5387 0.25052,-0.96771 0,-0.42572 -0.0835,-0.74665 -0.25052,-0.9628 -0.16702,-0.21613 -0.41591,-0.3242 -0.74666,-0.32421 -0.33076,1e-5 -0.57965,0.10808 -0.74666,0.32421 -0.16702,0.21615 -0.25053,0.53708 -0.25053,0.9628 0,0.42901 0.0835,0.75158 0.25053,0.96771 0.16701,0.21287 0.4159,0.3193 0.74666,0.3193" style="-inkscape-font-specification:Sans Bold" transform="rotate(-100 -136.282 4.273)"/><path d="m -359.96245,122.70254 c 0,-0.91695 -0.0868,-1.56209 -0.26035,-1.93543 -0.17029,-0.37659 -0.45847,-0.5649 -0.86455,-0.5649 -0.40608,0 -0.6959,0.18831 -0.86947,0.5649 -0.17356,0.37334 -0.26035,1.01848 -0.26034,1.93543 -1e-5,0.92678 0.0868,1.5801 0.26034,1.95998 0.17357,0.37988 0.46339,0.56982 0.86947,0.56982 0.4028,0 0.69098,-0.18994 0.86455,-0.56982 0.17357,-0.37988 0.26035,-1.0332 0.26035,-1.95998 m 1.89122,0.0147 c -10e-6,1.21497 -0.262,2.1532 -0.78596,2.81472 -0.52398,0.65824 -1.26736,0.98736 -2.23016,0.98736 -0.96608,0 -1.7111,-0.32912 -2.23507,-0.98736 -0.52397,-0.66152 -0.78596,-1.59975 -0.78596,-2.81472 0,-1.21823 0.26199,-2.15646 0.78596,-2.81471 0.52397,-0.66151 1.26899,-0.99226 2.23507,-0.99227 0.9628,1e-5 1.70618,0.33076 2.23016,0.99227 0.52396,0.65825 0.78595,1.59648 0.78596,2.81471" style="-inkscape-font-specification:Sans Bold" transform="rotate(-100 -136.282 4.273)"/></g><text transform="rotate(-90 -146.676 17.479)" style="line-height:125%" x="-311.3" y="178.703" font-size="40" font-weight="400" letter-spacing="0" word-spacing="0" fill="#e36a5c" font-family="Sans"/><g style="line-height:125%" font-size="14.084" font-weight="700" letter-spacing="0" word-spacing="0" fill="#e36a5c" font-family="Sans"><path d="m -323.50977,183.42453 2.33823,0 0,-6.63644 -2.40012,0.49516 0,-1.80181 2.38637,-0.49516 2.51703,0 0,8.43825 2.33822,0 0,1.82932 -7.17973,0 0,-1.82932" style="-inkscape-font-specification:Sans Bold" transform="rotate(-90 -146.676 17.479)"/><path d="m -310.46384,180.65992 c -0.49516,0 -0.87569,0.13525 -1.1416,0.40575 -0.26592,0.2705 -0.39888,0.65792 -0.39888,1.16224 0,0.50432 0.13296,0.89173 0.39888,1.16223 0.26591,0.26592 0.64644,0.39888 1.1416,0.39888 0.49056,0 0.86651,-0.13296 1.12785,-0.39888 0.26133,-0.2705 0.39199,-0.65791 0.392,-1.16223 -1e-5,-0.50891 -0.13067,-0.89632 -0.392,-1.16224 -0.26134,-0.2705 -0.63729,-0.40575 -1.12785,-0.40575 m -1.93247,-0.8734 c -0.62353,-0.18797 -1.09347,-0.47681 -1.40982,-0.86652 -0.31635,-0.38969 -0.47452,-0.87568 -0.47452,-1.45795 0,-0.86651 0.32322,-1.52671 0.96968,-1.98061 0.64644,-0.45389 1.59549,-0.68083 2.84713,-0.68084 1.24246,1e-5 2.18692,0.22695 2.83338,0.68084 0.64644,0.44931 0.96967,1.10952 0.96968,1.98061 -1e-5,0.58227 -0.16048,1.06826 -0.4814,1.45795 -0.31636,0.38971 -0.7863,0.67855 -1.40982,0.86652 0.69688,0.19257 1.22183,0.50662 1.57487,0.94217 0.3576,0.43097 0.53641,0.97656 0.53641,1.63676 0,1.01782 -0.33928,1.78805 -1.01781,2.31072 -0.67397,0.51807 -1.67574,0.77711 -3.00531,0.77711 -1.33417,0 -2.34281,-0.25904 -3.02594,-0.77711 -0.67854,-0.52267 -1.01782,-1.2929 -1.01782,-2.31072 0,-0.6602 0.17652,-1.20579 0.52954,-1.63676 0.35761,-0.43555 0.88486,-0.7496 1.58175,-0.94217 m 0.61894,-2.05626 c -10e-6,0.40805 0.11232,0.72211 0.33698,0.94217 0.22923,0.22007 0.55475,0.33011 0.97655,0.3301 0.41262,1e-5 0.73126,-0.11003 0.95592,-0.3301 0.22465,-0.22006 0.33698,-0.53412 0.33698,-0.94217 0,-0.40804 -0.11233,-0.7198 -0.33698,-0.93529 -0.22466,-0.22006 -0.5433,-0.3301 -0.95592,-0.3301 -0.4218,0 -0.74732,0.11004 -0.97655,0.3301 -0.22466,0.22008 -0.33699,0.53184 -0.33698,0.93529" style="-inkscape-font-specification:Sans Bold" transform="rotate(-90 -146.676 17.479)"/><path d="m -299.09593,180.10975 c -10e-6,-1.28373 -0.12151,-2.18692 -0.36449,-2.70959 -0.23842,-0.52724 -0.64187,-0.79087 -1.21038,-0.79087 -0.56851,0 -0.97426,0.26363 -1.21725,0.79087 -0.243,0.52267 -0.36449,1.42586 -0.36449,2.70959 0,1.29749 0.12149,2.21215 0.36449,2.74397 0.24299,0.53184 0.64874,0.79775 1.21725,0.79775 0.56392,0 0.96738,-0.26591 1.21038,-0.79775 0.24298,-0.53182 0.36448,-1.44648 0.36449,-2.74397 m 2.64769,0.0206 c -10e-6,1.70095 -0.36679,3.01448 -1.10034,3.9406 -0.73357,0.92153 -1.77431,1.3823 -3.12222,1.3823 -1.35251,0 -2.39554,-0.46077 -3.12909,-1.3823 -0.73357,-0.92612 -1.10035,-2.23965 -1.10035,-3.9406 0,-1.70552 0.36678,-3.01906 1.10035,-3.9406 0.73355,-0.92611 1.77658,-1.38917 3.12909,-1.38918 1.34791,1e-5 2.38865,0.46307 3.12222,1.38918 0.73355,0.92154 1.10033,2.23508 1.10034,3.9406" style="-inkscape-font-specification:Sans Bold" transform="rotate(-90 -146.676 17.479)"/></g><g style="line-height:125%" font-size="10.06" font-weight="700" letter-spacing="0" word-spacing="0" fill="#e36a5c" font-family="Sans"><path d="m -254.74069,232.47539 1.67016,0 0,-4.74031 -1.71437,0.35368 0,-1.28701 1.70454,-0.35368 1.79788,0 0,6.02732 1.67016,0 0,1.30665 -5.12837,0 0,-1.30665" style="-inkscape-font-specification:Sans Bold" transform="rotate(-80 -159.063 33.218)"/><path d="m -248.25163,226.44807 5.52627,0 0,1.06596 -2.85892,6.26801 -1.84209,0 2.70664,-5.94381 -3.5319,0 0,-1.39016" style="-inkscape-font-specification:Sans Bold" transform="rotate(-80 -159.063 33.218)"/><path d="m -237.30224,230.10769 c -10e-6,-0.91695 -0.0868,-1.56209 -0.26035,-1.93542 -0.1703,-0.3766 -0.45848,-0.56491 -0.86456,-0.56491 -0.40608,0 -0.6959,0.18831 -0.86946,0.56491 -0.17357,0.37333 -0.26035,1.01847 -0.26035,1.93542 0,0.92678 0.0868,1.5801 0.26035,1.95998 0.17356,0.37988 0.46338,0.56982 0.86946,0.56982 0.4028,0 0.69099,-0.18994 0.86456,-0.56982 0.17356,-0.37988 0.26034,-1.0332 0.26035,-1.95998 m 1.89121,0.0147 c -1e-5,1.21496 -0.26199,2.15319 -0.78596,2.81471 -0.52398,0.65824 -1.26736,0.98736 -2.23016,0.98736 -0.96607,0 -1.7111,-0.32912 -2.23507,-0.98736 -0.52397,-0.66152 -0.78596,-1.59975 -0.78595,-2.81471 -1e-5,-1.21824 0.26198,-2.15647 0.78595,-2.81472 0.52397,-0.66151 1.269,-0.99226 2.23507,-0.99227 0.9628,1e-5 1.70618,0.33076 2.23016,0.99227 0.52397,0.65825 0.78595,1.59648 0.78596,2.81472" style="-inkscape-font-specification:Sans Bold" transform="rotate(-80 -159.063 33.218)"/></g><g style="line-height:125%" font-size="10.06" font-weight="700" letter-spacing="0" word-spacing="0" fill="#e36a5c" font-family="Sans"><path d="m -182.01244,270.05305 1.67016,0 0,-4.74031 -1.71437,0.35369 0,-1.28701 1.70455,-0.35368 1.79788,0 0,6.02731 1.67016,0 0,1.30666 -5.12838,0 0,-1.30666" style="-inkscape-font-specification:Sans Bold" transform="rotate(-70 -174.334 52.62)"/><path d="m -172.55638,267.73939 c -0.33076,0 -0.57964,0.10807 -0.74666,0.32421 -0.16374,0.21286 -0.24561,0.5338 -0.24561,0.9628 0,0.429 0.0819,0.75157 0.24561,0.96771 0.16702,0.21286 0.4159,0.31929 0.74666,0.31929 0.33403,0 0.58292,-0.10643 0.74666,-0.31929 0.16701,-0.21614 0.25052,-0.53871 0.25053,-0.96771 -1e-5,-0.429 -0.0835,-0.74994 -0.25053,-0.9628 -0.16374,-0.21614 -0.41263,-0.32421 -0.74666,-0.32421 m 2.33823,-3.52208 0,1.35578 c -0.31112,-0.14736 -0.60421,-0.25543 -0.87929,-0.32421 -0.27509,-0.072 -0.54363,-0.10806 -0.80561,-0.10806 -0.56327,0 -1.0021,0.15719 -1.31648,0.47157 -0.31439,0.31111 -0.49778,0.7745 -0.55017,1.39016 0.21614,-0.16046 0.45029,-0.27999 0.70245,-0.35859 0.25216,-0.0819 0.52724,-0.1228 0.82526,-0.12281 0.74993,1e-5 1.35413,0.21942 1.81261,0.65824 0.46175,0.43884 0.69262,1.01357 0.69263,1.7242 -1e-5,0.78596 -0.25708,1.41636 -0.77122,1.89121 -0.51416,0.47158 -1.20351,0.70737 -2.06806,0.70737 -0.95297,0 -1.69145,-0.32094 -2.21542,-0.9628 -0.52069,-0.64514 -0.78104,-1.55882 -0.78104,-2.74103 0,-1.21168 0.30456,-2.16302 0.91367,-2.85401 0.61239,-0.69426 1.45075,-1.04139 2.51507,-1.0414 0.3373,10e-6 0.66479,0.0262 0.98245,0.0786 0.31765,0.0524 0.63203,0.131 0.94315,0.23578" style="-inkscape-font-specification:Sans Bold" transform="rotate(-70 -174.334 52.62)"/><path d="m -164.57399,267.68536 c 0,-0.91695 -0.0868,-1.56209 -0.26035,-1.93543 -0.17029,-0.3766 -0.45848,-0.5649 -0.86455,-0.5649 -0.40608,0 -0.6959,0.1883 -0.86947,0.5649 -0.17357,0.37334 -0.26035,1.01848 -0.26035,1.93543 0,0.92677 0.0868,1.5801 0.26035,1.95998 0.17357,0.37988 0.46339,0.56982 0.86947,0.56982 0.4028,0 0.69098,-0.18994 0.86455,-0.56982 0.17356,-0.37988 0.26035,-1.03321 0.26035,-1.95998 m 1.89121,0.0147 c 0,1.21497 -0.26199,2.1532 -0.78595,2.81472 -0.52398,0.65824 -1.26737,0.98736 -2.23016,0.98736 -0.96608,0 -1.7111,-0.32912 -2.23507,-0.98736 -0.52397,-0.66152 -0.78596,-1.59975 -0.78596,-2.81472 0,-1.21823 0.26199,-2.15647 0.78596,-2.81471 0.52397,-0.66151 1.26899,-0.99227 2.23507,-0.99227 0.96279,0 1.70618,0.33076 2.23016,0.99227 0.52396,0.65824 0.78595,1.59648 0.78595,2.81471" style="-inkscape-font-specification:Sans Bold" transform="rotate(-70 -174.334 52.62)"/></g><g style="line-height:125%" font-size="10.06" font-weight="700" letter-spacing="0" word-spacing="0" fill="#e36a5c" font-family="Sans"><path d="m -104.97095,293.75197 1.67016,0 0,-4.74031 -1.71437,0.35368 0,-1.28701 1.70455,-0.35368 1.79788,0 0,6.02732 1.670158,0 0,1.30665 -5.128378,0 0,-1.30665" style="-inkscape-font-specification:Sans Bold" transform="rotate(-60 -193.965 77.564)"/><path d="m -98.088902,287.72465 4.701013,0 0,1.39016 -3.192956,0 0,1.13473 c 0.14409,-0.0393 0.288182,-0.0688 0.432277,-0.0884 0.147364,-0.0229 0.299644,-0.0344 0.456839,-0.0344 0.894023,0 1.589923,0.22433 2.087702,0.67297 0.497767,0.44538 0.746654,1.0676 0.74666,1.86665 -6e-6,0.79251 -0.271817,1.41309 -0.815432,1.86174 -0.540351,0.44865 -1.291923,0.67298 -2.254718,0.67298 -0.415906,0 -0.828533,-0.0409 -1.237884,-0.12281 -0.40608,-0.0786 -0.810521,-0.19976 -1.213323,-0.3635 l 0,-1.48841 c 0.399527,0.22924 0.777769,0.40117 1.134727,0.51578 0.360229,0.11462 0.699173,0.17193 1.016834,0.17193 0.458472,0 0.818702,-0.11134 1.080692,-0.33403 0.265257,-0.22596 0.397887,-0.53052 0.397892,-0.91368 -5e-6,-0.38642 -0.132635,-0.69098 -0.397892,-0.91367 -0.26199,-0.22269 -0.62222,-0.33403 -1.080692,-0.33404 -0.271814,10e-6 -0.561635,0.036 -0.869467,0.10807 -0.307835,0.0688 -0.638592,0.17685 -0.992272,0.32421 l 0,-4.12628" style="-inkscape-font-specification:Sans Bold" transform="rotate(-60 -193.965 77.564)"/><path d="m -87.5325,291.38427 c -4e-6,-0.91695 -0.08679,-1.56209 -0.260348,-1.93542 -0.170295,-0.3766 -0.45848,-0.5649 -0.864554,-0.56491 -0.406082,1e-5 -0.695904,0.18831 -0.869467,0.56491 -0.173568,0.37333 -0.260351,1.01847 -0.260348,1.93542 -3e-6,0.92678 0.08678,1.5801 0.260348,1.95998 0.173563,0.37988 0.463385,0.56982 0.869467,0.56982 0.402799,0 0.690984,-0.18994 0.864554,-0.56982 0.173561,-0.37988 0.260344,-1.0332 0.260348,-1.95998 m 1.891213,0.0147 c -7e-6,1.21496 -0.261993,2.1532 -0.785959,2.81471 -0.523977,0.65824 -1.267362,0.98736 -2.230156,0.98736 -0.966077,0 -1.711099,-0.32912 -2.235069,-0.98736 -0.523973,-0.66151 -0.785959,-1.59975 -0.785959,-2.81471 0,-1.21823 0.261986,-2.15647 0.785959,-2.81472 0.52397,-0.66151 1.268992,-0.99226 2.235069,-0.99227 0.962794,1e-5 1.706179,0.33076 2.230156,0.99227 0.523966,0.65825 0.785952,1.59649 0.785959,2.81472" style="-inkscape-font-specification:Sans Bold" transform="rotate(-60 -193.965 77.564)"/></g><g style="line-height:125%" font-size="10.06" font-weight="700" letter-spacing="0" word-spacing="0" fill="#e36a5c" font-family="Sans"><path d="m -26.416798,303.62523 1.670161,0 0,-4.74031 -1.714371,0.35368 0,-1.28701 1.704547,-0.35368 1.79788,0 0,6.02732 1.670161,0 0,1.30665 -5.128378,0 0,-1.30665" style="-inkscape-font-specification:Sans Bold" transform="rotate(-50 -220.61 111.417)"/><path d="m -16.896878,299.15509 -2.072965,3.07015 2.072965,0 0,-3.07015 m -0.314383,-1.55718 2.102438,0 0,4.62733 1.046307,0 0,1.37052 -1.046307,0 0,1.33612 -1.788055,0 0,-1.33612 -3.251903,0 0,-1.62104 2.93752,-4.37681" style="-inkscape-font-specification:Sans Bold" transform="rotate(-50 -220.61 111.417)"/><path d="m -8.978348,301.25753 c -4.6e-6,-0.91695 -0.086787,-1.56209 -0.2603487,-1.93542 -0.1702952,-0.3766 -0.4584796,-0.5649 -0.8645543,-0.56491 -0.406081,10e-6 -0.695903,0.18831 -0.869466,0.56491 -0.173568,0.37333 -0.260351,1.01847 -0.260349,1.93542 -2e-6,0.92678 0.08678,1.58011 0.260349,1.95998 0.173563,0.37988 0.463385,0.56982 0.869466,0.56982 0.4027999,0 0.6909843,-0.18994 0.8645543,-0.56982 0.1735613,-0.37987 0.2603441,-1.0332 0.2603487,-1.95998 m 1.8912122,0.0147 c -6.5e-6,1.21496 -0.2619924,2.1532 -0.7859583,2.81471 -0.5239774,0.65824 -1.2673623,0.98736 -2.2301569,0.98736 -0.966076,0 -1.711098,-0.32912 -2.235069,-0.98736 -0.523973,-0.66151 -0.785959,-1.59975 -0.785958,-2.81471 -10e-7,-1.21823 0.261985,-2.15647 0.785958,-2.81472 0.523971,-0.6615 1.268993,-0.99226 2.235069,-0.99227 0.9627946,10e-6 1.7061795,0.33077 2.2301569,0.99227 0.5239659,0.65825 0.7859518,1.59649 0.7859583,2.81472" style="-inkscape-font-specification:Sans Bold" transform="rotate(-50 -220.61 111.417)"/></g><g style="line-height:125%" font-size="10.06" font-weight="700" letter-spacing="0" word-spacing="0" fill="#e36a5c" font-family="Sans"><path d="m 53.76629,299.57622 1.670162,0 0,-4.74031 -1.714372,0.35368 0,-1.28701 1.704547,-0.35368 1.79788,0 0,6.02732 1.670161,0 0,1.30665 -5.128378,0 0,-1.30665" style="-inkscape-font-specification:Sans Bold" transform="rotate(-40 -259.56 160.907)"/><path d="m 64.268658,296.92852 c 0.494494,0.12772 0.869461,0.35041 1.124903,0.66807 0.258705,0.31438 0.388061,0.71555 0.388067,1.20349 -6e-6,0.72702 -0.278366,1.28046 -0.835081,1.66034 -0.556725,0.37661 -1.368881,0.56491 -2.436471,0.56491 -0.376607,0 -0.754849,-0.0311 -1.134727,-0.0933 -0.376606,-0.059 -0.749936,-0.14901 -1.11999,-0.27018 l 0,-1.45893 c 0.35368,0.17684 0.704086,0.31111 1.051219,0.4028 0.350404,0.0884 0.694261,0.13263 1.03157,0.13263 0.501045,0 0.8842,-0.0868 1.149464,-0.26035 0.268532,-0.17356 0.402799,-0.42245 0.402804,-0.74666 -5e-6,-0.33403 -0.137547,-0.58619 -0.412628,-0.75648 -0.271815,-0.17356 -0.674618,-0.26035 -1.208411,-0.26035 l -0.756485,0 0,-1.21824 0.795783,0 c 0.474846,10e-6 0.828527,-0.0737 1.061043,-0.22105 0.232509,-0.15063 0.348765,-0.37823 0.348769,-0.6828 -4e-6,-0.28163 -0.112985,-0.4994 -0.338944,-0.65333 -0.225967,-0.15391 -0.545262,-0.23087 -0.957887,-0.23087 -0.304561,0 -0.612395,0.0344 -0.923501,0.10316 -0.31111,0.0688 -0.620581,0.17029 -0.928413,0.30455 l 0,-1.38525 c 0.373329,-0.10478 0.743384,-0.18338 1.110166,-0.23578 0.366778,-0.0524 0.727009,-0.0786 1.080693,-0.0786 0.95297,10e-6 1.665244,0.1572 2.136824,0.47157 0.474844,0.31112 0.712269,0.78106 0.712275,1.40982 -6e-6,0.429 -0.112988,0.78105 -0.338945,1.05613 -0.225968,0.27181 -0.56,0.46339 -1.002097,0.57473" style="-inkscape-font-specification:Sans Bold" transform="rotate(-40 -259.56 160.907)"/><path d="m 71.20474,297.20852 c -4e-6,-0.91695 -0.08679,-1.56209 -0.260348,-1.93542 -0.170296,-0.3766 -0.45848,-0.56491 -0.864555,-0.56491 -0.406081,0 -0.695903,0.18831 -0.869466,0.56491 -0.173568,0.37333 -0.260351,1.01847 -0.260349,1.93542 -2e-6,0.92678 0.08678,1.5801 0.260349,1.95998 0.173563,0.37988 0.463385,0.56982 0.869466,0.56982 0.4028,0 0.690985,-0.18994 0.864555,-0.56982 0.173561,-0.37988 0.260344,-1.0332 0.260348,-1.95998 m 1.891213,0.0147 c -7e-6,1.21496 -0.261993,2.15319 -0.785959,2.81471 -0.523977,0.65824 -1.267362,0.98736 -2.230157,0.98736 -0.966076,0 -1.711098,-0.32912 -2.235069,-0.98736 -0.523972,-0.66152 -0.785958,-1.59975 -0.785958,-2.81471 0,-1.21824 0.261986,-2.15647 0.785958,-2.81472 0.523971,-0.66151 1.268993,-0.99226 2.235069,-0.99227 0.962795,10e-6 1.70618,0.33076 2.230157,0.99227 0.523966,0.65825 0.785952,1.59648 0.785959,2.81472" style="-inkscape-font-specification:Sans Bold" transform="rotate(-40 -259.56 160.907)"/></g><g style="line-height:125%" font-size="10.06" font-weight="700" letter-spacing="0" word-spacing="0" fill="#e36a5c" font-family="Sans"><path d="m 133.72658,280.7892 1.67016,0 0,-4.74031 -1.71437,0.35368 0,-1.28701 1.70454,-0.35368 1.79788,0 0,6.02732 1.67016,0 0,1.30666 -5.12837,0 0,-1.30666" style="-inkscape-font-specification:Sans Bold" transform="rotate(-30 -323.162 241.719)"/><path d="m 142.44089,280.70569 3.22734,0 0,1.39017 -5.32978,0 0,-1.39017 2.67717,-2.36279 c 0.23906,-0.21613 0.4159,-0.42736 0.53052,-0.63367 0.11462,-0.20631 0.17193,-0.42081 0.17193,-0.64351 0,-0.34385 -0.11626,-0.62057 -0.34877,-0.83017 -0.22924,-0.20958 -0.53544,-0.31437 -0.91859,-0.31438 -0.29473,10e-6 -0.6173,0.0639 -0.96771,0.19158 -0.35041,0.12445 -0.72537,0.31111 -1.1249,0.55999 l 0,-1.61121 c 0.42572,-0.14081 0.84654,-0.24724 1.26244,-0.3193 0.4159,-0.0753 0.82362,-0.11297 1.22315,-0.11298 0.87765,10e-6 1.55881,0.19322 2.04349,0.57965 0.48795,0.38643 0.73192,0.92514 0.73193,1.61612 -1e-5,0.39954 -0.10317,0.77287 -0.30947,1.11999 -0.20632,0.34386 -0.64024,0.80561 -1.30175,1.38525 l -1.567,1.37543" style="-inkscape-font-specification:Sans Bold" transform="rotate(-30 -323.162 241.719)"/><path d="m 151.16503,278.4215 c -1e-5,-0.91695 -0.0868,-1.56209 -0.26035,-1.93542 -0.1703,-0.3766 -0.45848,-0.5649 -0.86456,-0.56491 -0.40608,10e-6 -0.6959,0.18831 -0.86946,0.56491 -0.17357,0.37333 -0.26035,1.01847 -0.26035,1.93542 0,0.92678 0.0868,1.58011 0.26035,1.95998 0.17356,0.37989 0.46338,0.56983 0.86946,0.56982 0.4028,10e-6 0.69099,-0.18993 0.86456,-0.56982 0.17356,-0.37987 0.26034,-1.0332 0.26035,-1.95998 m 1.89121,0.0147 c -1e-5,1.21496 -0.26199,2.1532 -0.78596,2.81471 -0.52398,0.65824 -1.26736,0.98736 -2.23016,0.98736 -0.96607,0 -1.7111,-0.32912 -2.23507,-0.98736 -0.52397,-0.66151 -0.78596,-1.59975 -0.78595,-2.81471 -1e-5,-1.21823 0.26198,-2.15647 0.78595,-2.81472 0.52397,-0.6615 1.269,-0.99226 2.23507,-0.99227 0.9628,10e-6 1.70618,0.33077 2.23016,0.99227 0.52397,0.65825 0.78595,1.59649 0.78596,2.81472" style="-inkscape-font-specification:Sans Bold" transform="rotate(-30 -323.162 241.719)"/></g><g style="line-height:125%" font-size="10.06" font-weight="700" letter-spacing="0" word-spacing="0" fill="#e36a5c" font-family="Sans"><path d="m 208.42724,249.49525 1.67017,0 0,-4.74031 -1.71438,0.35368 0,-1.287 1.70455,-0.35368 1.79788,0 0,6.02731 1.67016,0 0,1.30666 -5.12838,0 0,-1.30666" style="-inkscape-font-specification:Sans Bold" transform="rotate(-20 -448.434 400.886)"/><path d="m 215.42227,249.49525 1.67016,0 0,-4.74031 -1.71437,0.35368 0,-1.287 1.70455,-0.35368 1.79788,0 0,6.02731 1.67016,0 0,1.30666 -5.12838,0 0,-1.30666" style="-inkscape-font-specification:Sans Bold" transform="rotate(-20 -448.434 400.886)"/><path d="m 225.86569,247.12756 c 0,-0.91695 -0.0868,-1.56209 -0.26034,-1.93543 -0.1703,-0.3766 -0.45848,-0.5649 -0.86456,-0.5649 -0.40608,0 -0.6959,0.1883 -0.86947,0.5649 -0.17356,0.37334 -0.26035,1.01848 -0.26034,1.93543 -1e-5,0.92677 0.0868,1.5801 0.26034,1.95998 0.17357,0.37988 0.46339,0.56982 0.86947,0.56982 0.4028,0 0.69099,-0.18994 0.86456,-0.56982 0.17356,-0.37988 0.26034,-1.03321 0.26034,-1.95998 m 1.89122,0.0147 c -1e-5,1.21496 -0.262,2.1532 -0.78596,2.81472 -0.52398,0.65824 -1.26736,0.98736 -2.23016,0.98736 -0.96608,0 -1.7111,-0.32912 -2.23507,-0.98736 -0.52397,-0.66152 -0.78596,-1.59976 -0.78596,-2.81472 0,-1.21823 0.26199,-2.15647 0.78596,-2.81471 0.52397,-0.66151 1.26899,-0.99227 2.23507,-0.99227 0.9628,0 1.70618,0.33076 2.23016,0.99227 0.52396,0.65824 0.78595,1.59648 0.78596,2.81471" style="-inkscape-font-specification:Sans Bold" transform="rotate(-20 -448.434 400.886)"/></g><g style="line-height:125%" font-size="10.06" font-weight="700" letter-spacing="0" word-spacing="0" fill="#e36a5c" font-family="Sans"><path d="m 274.68861,205.49098 1.67016,0 0,-4.74031 -1.71437,0.35368 0,-1.287 1.70455,-0.35369 1.79788,0 0,6.02732 1.67016,0 0,1.30666 -5.12838,0 0,-1.30666" style="-inkscape-font-specification:Sans Bold" transform="rotate(-10 -820.442 873.55)"/><path d="m 285.13203,203.12328 c 0,-0.91694 -0.0868,-1.56208 -0.26035,-1.93542 -0.17029,-0.3766 -0.45848,-0.5649 -0.86455,-0.56491 -0.40608,1e-5 -0.6959,0.18831 -0.86947,0.56491 -0.17356,0.37334 -0.26035,1.01848 -0.26035,1.93542 0,0.92678 0.0868,1.58011 0.26035,1.95999 0.17357,0.37988 0.46339,0.56982 0.86947,0.56982 0.4028,0 0.69098,-0.18994 0.86455,-0.56982 0.17357,-0.37988 0.26035,-1.03321 0.26035,-1.95999 m 1.89121,0.0147 c 0,1.21496 -0.26199,2.1532 -0.78595,2.81471 -0.52398,0.65824 -1.26737,0.98736 -2.23016,0.98736 -0.96608,0 -1.7111,-0.32912 -2.23507,-0.98736 -0.52397,-0.66151 -0.78596,-1.59975 -0.78596,-2.81471 0,-1.21823 0.26199,-2.15647 0.78596,-2.81471 0.52397,-0.66151 1.26899,-0.99227 2.23507,-0.99228 0.96279,1e-5 1.70618,0.33077 2.23016,0.99228 0.52396,0.65824 0.78595,1.59648 0.78595,2.81471" style="-inkscape-font-specification:Sans Bold" transform="rotate(-10 -820.442 873.55)"/><path d="m 292.12706,203.12328 c 0,-0.91694 -0.0868,-1.56208 -0.26035,-1.93542 -0.17029,-0.3766 -0.45848,-0.5649 -0.86455,-0.56491 -0.40608,1e-5 -0.6959,0.18831 -0.86947,0.56491 -0.17357,0.37334 -0.26035,1.01848 -0.26035,1.93542 0,0.92678 0.0868,1.58011 0.26035,1.95999 0.17357,0.37988 0.46339,0.56982 0.86947,0.56982 0.4028,0 0.69098,-0.18994 0.86455,-0.56982 0.17356,-0.37988 0.26035,-1.03321 0.26035,-1.95999 m 1.89121,0.0147 c 0,1.21496 -0.26199,2.1532 -0.78595,2.81471 -0.52398,0.65824 -1.26737,0.98736 -2.23016,0.98736 -0.96608,0 -1.7111,-0.32912 -2.23507,-0.98736 -0.52397,-0.66151 -0.78596,-1.59975 -0.78596,-2.81471 0,-1.21823 0.26199,-2.15647 0.78596,-2.81471 0.52397,-0.66151 1.26899,-0.99227 2.23507,-0.99228 0.96279,1e-5 1.70618,0.33077 2.23016,0.99228 0.52396,0.65824 0.78595,1.59648 0.78595,2.81471" style="-inkscape-font-specification:Sans Bold" transform="rotate(-10 -820.442 873.55)"/></g><text y="146.807" x="342.843" style="line-height:125%" font-size="40" font-weight="400" letter-spacing="0" word-spacing="0" fill="#e36a5c" font-family="Sans" transform="translate(-164.155 -129.197)"/><text y="-496.924" x="300.104" style="line-height:125%" transform="rotate(90 -17.479 -146.676)" font-size="40" font-weight="400" letter-spacing="0" word-spacing="0" fill="#e36a5c" font-family="Sans"/><g style="line-height:125%" font-size="10.06" font-weight="700" letter-spacing="0" word-spacing="0" fill="#e36a5c" font-family="Sans"><path d="m 240.57722,-551.99195 c 0.4945,0.12772 0.86946,0.35041 1.1249,0.66806 0.25871,0.31439 0.38807,0.71556 0.38807,1.2035 0,0.72702 -0.27836,1.28046 -0.83508,1.66034 -0.55672,0.3766 -1.36888,0.56491 -2.43647,0.56491 -0.37661,0 -0.75485,-0.0311 -1.13473,-0.0933 -0.3766,-0.0589 -0.74993,-0.149 -1.11999,-0.27017 l 0,-1.45893 c 0.35368,0.17684 0.70409,0.31111 1.05122,0.4028 0.35041,0.0884 0.69426,0.13263 1.03157,0.13263 0.50105,0 0.8842,-0.0868 1.14947,-0.26035 0.26853,-0.17356 0.4028,-0.42245 0.4028,-0.74666 0,-0.33403 -0.13755,-0.58619 -0.41263,-0.75648 -0.27181,-0.17357 -0.67462,-0.26035 -1.20841,-0.26035 l -0.75648,0 0,-1.21824 0.79578,0 c 0.47484,10e-6 0.82853,-0.0737 1.06104,-0.22105 0.23251,-0.15064 0.34877,-0.37824 0.34877,-0.6828 0,-0.28163 -0.11298,-0.4994 -0.33894,-0.65333 -0.22597,-0.15391 -0.54527,-0.23087 -0.95789,-0.23087 -0.30456,0 -0.61239,0.0344 -0.9235,0.10315 -0.31111,0.0688 -0.62058,0.1703 -0.92841,0.30456 l 0,-1.38525 c 0.37332,-0.10479 0.74338,-0.18338 1.11016,-0.23579 0.36678,-0.0524 0.72701,-0.0786 1.08069,-0.0786 0.95297,10e-6 1.66525,0.1572 2.13683,0.47157 0.47484,0.31112 0.71227,0.78106 0.71227,1.40982 0,0.429 -0.11298,0.78105 -0.33894,1.05613 -0.22597,0.27181 -0.56,0.46339 -1.0021,0.57473" style="-inkscape-font-specification:Sans Bold" transform="rotate(100 -27.873 -133.47)"/><path d="m 243.95193,-555.37157 4.70101,0 0,1.39016 -3.19295,0 0,1.13473 c 0.14409,-0.0393 0.28818,-0.0688 0.43227,-0.0884 0.14737,-0.0229 0.29965,-0.0344 0.45684,-0.0344 0.89403,10e-6 1.58993,0.22433 2.08771,0.67298 0.49776,0.44538 0.74665,1.0676 0.74666,1.86665 -1e-5,0.79251 -0.27182,1.41309 -0.81544,1.86174 -0.54035,0.44865 -1.29192,0.67298 -2.25471,0.67298 -0.41591,0 -0.82854,-0.0409 -1.23789,-0.12281 -0.40608,-0.0786 -0.81052,-0.19976 -1.21332,-0.3635 l 0,-1.48841 c 0.39953,0.22924 0.77777,0.40116 1.13473,0.51578 0.36022,0.11462 0.69917,0.17193 1.01683,0.17193 0.45847,0 0.8187,-0.11134 1.08069,-0.33403 0.26526,-0.22596 0.39789,-0.53052 0.39789,-0.91368 0,-0.38643 -0.13263,-0.69098 -0.39789,-0.91367 -0.26199,-0.22269 -0.62222,-0.33403 -1.08069,-0.33404 -0.27181,10e-6 -0.56164,0.036 -0.86947,0.10807 -0.30783,0.0688 -0.63859,0.17685 -0.99227,0.32421 l 0,-4.12628" style="-inkscape-font-specification:Sans Bold" transform="rotate(100 -27.873 -133.47)"/><path d="m 254.50833,-551.71195 c 0,-0.91695 -0.0868,-1.56209 -0.26035,-1.93543 -0.17029,-0.37659 -0.45848,-0.5649 -0.86455,-0.5649 -0.40608,0 -0.6959,0.18831 -0.86947,0.5649 -0.17356,0.37334 -0.26035,1.01848 -0.26034,1.93543 -1e-5,0.92678 0.0868,1.5801 0.26034,1.95998 0.17357,0.37988 0.46339,0.56982 0.86947,0.56982 0.4028,0 0.69098,-0.18994 0.86455,-0.56982 0.17357,-0.37988 0.26035,-1.0332 0.26035,-1.95998 m 1.89122,0.0147 c -10e-6,1.21497 -0.262,2.1532 -0.78596,2.81472 -0.52398,0.65824 -1.26737,0.98736 -2.23016,0.98736 -0.96608,0 -1.7111,-0.32912 -2.23507,-0.98736 -0.52397,-0.66152 -0.78596,-1.59975 -0.78596,-2.81472 0,-1.21823 0.26199,-2.15646 0.78596,-2.81471 0.52397,-0.66151 1.26899,-0.99226 2.23507,-0.99227 0.96279,10e-6 1.70618,0.33076 2.23016,0.99227 0.52396,0.65825 0.78595,1.59648 0.78596,2.81471" style="-inkscape-font-specification:Sans Bold" transform="rotate(100 -27.873 -133.47)"/></g><g style="line-height:125%" font-size="10.06" font-weight="700" letter-spacing="0" word-spacing="0" fill="#e36a5c" font-family="Sans"><path d="m 169.63247,-589.14692 c 0.4945,0.12772 0.86946,0.35041 1.12491,0.66807 0.2587,0.31438 0.38806,0.71555 0.38806,1.20349 0,0.72702 -0.27836,1.28046 -0.83508,1.66034 -0.55672,0.37661 -1.36888,0.56491 -2.43647,0.56491 -0.37661,0 -0.75485,-0.0311 -1.13473,-0.0933 -0.3766,-0.0589 -0.74993,-0.14901 -1.11999,-0.27018 l 0,-1.45893 c 0.35368,0.17684 0.70409,0.31111 1.05122,0.4028 0.35041,0.0884 0.69426,0.13263 1.03157,0.13263 0.50105,0 0.8842,-0.0868 1.14947,-0.26035 0.26853,-0.17356 0.4028,-0.42245 0.4028,-0.74666 0,-0.33403 -0.13755,-0.58619 -0.41263,-0.75648 -0.27181,-0.17356 -0.67461,-0.26035 -1.20841,-0.26035 l -0.75648,0 0,-1.21824 0.79578,0 c 0.47485,10e-6 0.82853,-0.0737 1.06104,-0.22105 0.23251,-0.15063 0.34877,-0.37823 0.34877,-0.6828 0,-0.28163 -0.11298,-0.4994 -0.33894,-0.65333 -0.22597,-0.15391 -0.54526,-0.23086 -0.95789,-0.23087 -0.30456,10e-6 -0.61239,0.0344 -0.9235,0.10316 -0.31111,0.0688 -0.62058,0.17029 -0.92841,0.30455 l 0,-1.38525 c 0.37333,-0.10478 0.74338,-0.18338 1.11016,-0.23578 0.36678,-0.0524 0.72701,-0.0786 1.0807,-0.0786 0.95297,10e-6 1.66524,0.1572 2.13682,0.47158 0.47484,0.31111 0.71227,0.78105 0.71228,1.40981 -1e-5,0.42901 -0.11299,0.78105 -0.33895,1.05613 -0.22597,0.27181 -0.56,0.46339 -1.0021,0.57473" style="-inkscape-font-specification:Sans Bold" transform="rotate(110 -36.845 -122.07)"/><path d="m 175.64506,-590.96936 -2.07297,3.07015 2.07297,0 0,-3.07015 m -0.31439,-1.55718 2.10244,0 0,4.62733 1.04631,0 0,1.37051 -1.04631,0 0,1.33613 -1.78805,0 0,-1.33613 -3.25191,0 0,-1.62103 2.93752,-4.37681" style="-inkscape-font-specification:Sans Bold" transform="rotate(110 -36.845 -122.07)"/><path d="m 183.56359,-588.86692 c -1e-5,-0.91695 -0.0868,-1.56209 -0.26035,-1.93542 -0.1703,-0.3766 -0.45848,-0.5649 -0.86456,-0.56491 -0.40608,10e-6 -0.6959,0.18831 -0.86946,0.56491 -0.17357,0.37333 -0.26036,1.01847 -0.26035,1.93542 -1e-5,0.92678 0.0868,1.5801 0.26035,1.95998 0.17356,0.37988 0.46338,0.56982 0.86946,0.56982 0.4028,0 0.69099,-0.18994 0.86456,-0.56982 0.17356,-0.37988 0.26034,-1.0332 0.26035,-1.95998 m 1.89121,0.0147 c -1e-5,1.21496 -0.262,2.1532 -0.78596,2.81471 -0.52398,0.65824 -1.26736,0.98736 -2.23016,0.98736 -0.96607,0 -1.7111,-0.32912 -2.23507,-0.98736 -0.52397,-0.66151 -0.78596,-1.59975 -0.78596,-2.81471 0,-1.21823 0.26199,-2.15647 0.78596,-2.81472 0.52397,-0.66151 1.269,-0.99226 2.23507,-0.99227 0.9628,10e-6 1.70618,0.33076 2.23016,0.99227 0.52396,0.65825 0.78595,1.59649 0.78596,2.81472" style="-inkscape-font-specification:Sans Bold" transform="rotate(110 -36.845 -122.07)"/></g><g style="line-height:125%" font-size="10.06" font-weight="700" letter-spacing="0" word-spacing="0" fill="#e36a5c" font-family="Sans"><path d="m 92.467656,-613.19776 c 0.494494,0.12772 0.869461,0.35041 1.124903,0.66806 0.258705,0.31439 0.388061,0.71556 0.388067,1.2035 -6e-6,0.72702 -0.278366,1.28046 -0.835081,1.66034 -0.556725,0.3766 -1.368881,0.56491 -2.436471,0.56491 -0.376607,0 -0.754849,-0.0311 -1.134727,-0.0933 -0.376606,-0.0589 -0.749936,-0.149 -1.11999,-0.27017 l 0,-1.45893 c 0.35368,0.17684 0.704086,0.31111 1.051219,0.4028 0.350404,0.0884 0.694261,0.13263 1.03157,0.13263 0.501045,0 0.8842,-0.0868 1.149464,-0.26035 0.268532,-0.17356 0.402799,-0.42245 0.402804,-0.74666 -5e-6,-0.33403 -0.137547,-0.58619 -0.412628,-0.75648 -0.271815,-0.17357 -0.674618,-0.26035 -1.208411,-0.26035 l -0.756485,0 0,-1.21824 0.795783,0 c 0.474846,10e-6 0.828527,-0.0737 1.061043,-0.22105 0.232509,-0.15064 0.348765,-0.37824 0.348769,-0.6828 -4e-6,-0.28163 -0.112985,-0.49941 -0.338944,-0.65333 -0.225967,-0.15391 -0.545262,-0.23087 -0.957887,-0.23087 -0.304561,0 -0.612395,0.0344 -0.923501,0.10315 -0.31111,0.0688 -0.620581,0.1703 -0.928413,0.30456 l 0,-1.38525 c 0.373329,-0.10479 0.743384,-0.18338 1.110166,-0.23579 0.366778,-0.0524 0.727009,-0.0786 1.080693,-0.0786 0.95297,10e-6 1.665244,0.1572 2.136824,0.47157 0.474844,0.31112 0.712269,0.78106 0.712275,1.40982 -6e-6,0.429 -0.112988,0.78105 -0.338945,1.05613 -0.225968,0.27181 -0.56,0.46339 -1.002097,0.57473" style="-inkscape-font-specification:Sans Bold" transform="rotate(120 -44.781 -111.986)"/><path d="m 99.462685,-613.19776 c 0.494494,0.12772 0.869465,0.35041 1.124905,0.66806 0.2587,0.31439 0.38806,0.71556 0.38806,1.2035 0,0.72702 -0.27836,1.28046 -0.83508,1.66034 -0.556721,0.3766 -1.368877,0.56491 -2.436467,0.56491 -0.376607,0 -0.754849,-0.0311 -1.134727,-0.0933 -0.376606,-0.0589 -0.749936,-0.149 -1.119991,-0.27017 l 0,-1.45893 c 0.353681,0.17684 0.704087,0.31111 1.05122,0.4028 0.350404,0.0884 0.694261,0.13263 1.03157,0.13263 0.501045,0 0.8842,-0.0868 1.149464,-0.26035 0.268532,-0.17356 0.402799,-0.42245 0.402804,-0.74666 -5e-6,-0.33403 -0.137547,-0.58619 -0.412628,-0.75648 -0.271815,-0.17357 -0.674618,-0.26035 -1.208411,-0.26035 l -0.756485,0 0,-1.21824 0.795783,0 c 0.474846,10e-6 0.828527,-0.0737 1.061043,-0.22105 0.232509,-0.15064 0.348765,-0.37824 0.348769,-0.6828 -4e-6,-0.28163 -0.112985,-0.49941 -0.338944,-0.65333 -0.225967,-0.15391 -0.545262,-0.23087 -0.957887,-0.23087 -0.304561,0 -0.612395,0.0344 -0.923501,0.10315 -0.31111,0.0688 -0.620581,0.1703 -0.928413,0.30456 l 0,-1.38525 c 0.373329,-0.10479 0.743384,-0.18338 1.110166,-0.23579 0.366778,-0.0524 0.727009,-0.0786 1.080693,-0.0786 0.95297,10e-6 1.665244,0.1572 2.136822,0.47157 0.47485,0.31112 0.71227,0.78106 0.71228,1.40982 -1e-5,0.429 -0.11299,0.78105 -0.33895,1.05613 -0.22597,0.27181 -0.559998,0.46339 -1.002095,0.57473" style="-inkscape-font-specification:Sans Bold" transform="rotate(120 -44.781 -111.986)"/><path d="m 106.39877,-612.91776 c -1e-5,-0.91695 -0.0868,-1.56209 -0.26035,-1.93543 -0.1703,-0.37659 -0.45848,-0.5649 -0.86456,-0.5649 -0.40608,0 -0.6959,0.18831 -0.86946,0.5649 -0.17357,0.37334 -0.26035,1.01848 -0.26035,1.93543 0,0.92678 0.0868,1.5801 0.26035,1.95998 0.17356,0.37988 0.46338,0.56982 0.86946,0.56982 0.4028,0 0.69099,-0.18994 0.86456,-0.56982 0.17356,-0.37988 0.26034,-1.0332 0.26035,-1.95998 m 1.89121,0.0147 c -1e-5,1.21497 -0.26199,2.1532 -0.78596,2.81472 -0.52398,0.65824 -1.26736,0.98736 -2.23016,0.98736 -0.96607,0 -1.71109,-0.32912 -2.23506,-0.98736 -0.52398,-0.66152 -0.78596,-1.59975 -0.78596,-2.81472 0,-1.21823 0.26198,-2.15646 0.78596,-2.81471 0.52397,-0.66151 1.26899,-0.99226 2.23506,-0.99227 0.9628,10e-6 1.70618,0.33076 2.23016,0.99227 0.52397,0.65825 0.78595,1.59648 0.78596,2.81471" style="-inkscape-font-specification:Sans Bold" transform="rotate(120 -44.781 -111.986)"/></g><g style="line-height:125%" font-size="10.06" font-weight="700" letter-spacing="0" word-spacing="0" fill="#e36a5c" font-family="Sans"><path d="m 11.045147,-623.26191 c 0.494494,0.12772 0.869461,0.35041 1.124903,0.66807 0.258705,0.31438 0.388061,0.71555 0.388067,1.20349 -6e-6,0.72702 -0.278366,1.28046 -0.835081,1.66034 -0.556725,0.37661 -1.368881,0.56491 -2.4364708,0.56491 -0.3766075,0 -0.7548496,-0.0311 -1.1347273,-0.0933 -0.3766064,-0.0589 -0.7499362,-0.14901 -1.1199906,-0.27018 l 0,-1.45893 c 0.3536802,0.17684 0.7040863,0.31111 1.0512193,0.4028 0.3504043,0.0884 0.6942607,0.13263 1.0315703,0.13263 0.5010451,0 0.8841994,-0.0868 1.1494641,-0.26035 0.268531,-0.17356 0.402799,-0.42245 0.402804,-0.74666 -5e-6,-0.33403 -0.137547,-0.58619 -0.412629,-0.75648 -0.2718138,-0.17356 -0.674617,-0.26035 -1.2084105,-0.26035 l -0.7564849,0 0,-1.21824 0.7957828,0 c 0.4748466,1e-5 0.8285275,-0.0737 1.0610436,-0.22105 0.232509,-0.15063 0.348765,-0.37823 0.348769,-0.6828 -4e-6,-0.28163 -0.112985,-0.4994 -0.338944,-0.65333 -0.2259669,-0.15391 -0.5452622,-0.23087 -0.9578871,-0.23087 -0.3045613,0 -0.6123947,0.0344 -0.923501,0.10316 -0.3111101,0.0688 -0.6205809,0.17029 -0.9284133,0.30455 l 0,-1.38525 c 0.3733289,-0.10478 0.7433839,-0.18338 1.1101662,-0.23578 0.3667781,-0.0524 0.7270086,-0.0786 1.0806927,-0.0786 0.9529705,1e-5 1.6652445,0.1572 2.1368245,0.47157 0.474844,0.31112 0.712268,0.78106 0.712274,1.40982 -6e-6,0.429 -0.112987,0.78105 -0.338944,1.05613 -0.225969,0.27181 -0.560001,0.46339 -1.002097,0.57473" style="-inkscape-font-specification:Sans Bold" transform="rotate(130 -51.955 -102.872)"/><path d="m 16.252121,-620.69772 3.227341,0 0,1.39016 -5.32978,0 0,-1.39016 2.677171,-2.36279 c 0.239058,-0.21613 0.415899,-0.42736 0.530522,-0.63368 0.114614,-0.20631 0.171924,-0.42081 0.171928,-0.6435 -4e-6,-0.34385 -0.11626,-0.62057 -0.348769,-0.83017 -0.229241,-0.20958 -0.535437,-0.31438 -0.918589,-0.31438 -0.294737,0 -0.617307,0.0639 -0.967711,0.19158 -0.350408,0.12445 -0.725375,0.31111 -1.124903,0.55999 l 0,-1.61121 c 0.425726,-0.14081 0.846541,-0.24725 1.262446,-0.3193 0.4159,-0.0753 0.823616,-0.11297 1.223147,-0.11298 0.87765,1e-5 1.558813,0.19322 2.043492,0.57964 0.487943,0.38644 0.731918,0.92515 0.731924,1.61613 -6e-6,0.39953 -0.103163,0.77286 -0.309471,1.11999 -0.20632,0.34386 -0.640234,0.80561 -1.301744,1.38525 l -1.567004,1.37543" style="-inkscape-font-specification:Sans Bold" transform="rotate(130 -51.955 -102.872)"/><path d="m 24.976258,-622.98191 c -5e-6,-0.91695 -0.08679,-1.56209 -0.260349,-1.93542 -0.170295,-0.3766 -0.458479,-0.56491 -0.864554,-0.56491 -0.406081,0 -0.695903,0.18831 -0.869466,0.56491 -0.173568,0.37333 -0.260351,1.01847 -0.260349,1.93542 -2e-6,0.92678 0.08678,1.5801 0.260349,1.95998 0.173563,0.37988 0.463385,0.56982 0.869466,0.56982 0.4028,0 0.690984,-0.18994 0.864554,-0.56982 0.173562,-0.37988 0.260344,-1.0332 0.260349,-1.95998 m 1.891212,0.0147 c -6e-6,1.21496 -0.261992,2.1532 -0.785958,2.81471 -0.523977,0.65824 -1.267362,0.98736 -2.230157,0.98736 -0.966076,0 -1.711098,-0.32912 -2.235069,-0.98736 -0.523973,-0.66151 -0.785959,-1.59975 -0.785958,-2.81471 -1e-6,-1.21824 0.261985,-2.15647 0.785958,-2.81472 0.523971,-0.66151 1.268993,-0.99226 2.235069,-0.99227 0.962795,1e-5 1.70618,0.33076 2.230157,0.99227 0.523966,0.65825 0.785952,1.59648 0.785958,2.81472" style="-inkscape-font-specification:Sans Bold" transform="rotate(130 -51.955 -102.872)"/></g><g style="line-height:125%" font-size="10.06" font-weight="700" letter-spacing="0" word-spacing="0" fill="#e36a5c" font-family="Sans"><path d="m -69.780108,-619.16584 c 0.494493,0.12772 0.86946,0.35041 1.124902,0.66806 0.258706,0.31439 0.388061,0.71556 0.388067,1.2035 -6e-6,0.72702 -0.278366,1.28046 -0.83508,1.66034 -0.556726,0.37661 -1.368882,0.56491 -2.436471,0.56491 -0.376608,0 -0.75485,-0.0311 -1.134727,-0.0933 -0.376607,-0.0589 -0.749937,-0.14901 -1.119991,-0.27018 l 0,-1.45893 c 0.35368,0.17684 0.704086,0.31111 1.051219,0.4028 0.350405,0.0884 0.694261,0.13263 1.03157,0.13263 0.501046,0 0.8842,-0.0868 1.149465,-0.26035 0.268531,-0.17356 0.402799,-0.42245 0.402803,-0.74666 -4e-6,-0.33403 -0.137547,-0.58619 -0.412628,-0.75648 -0.271814,-0.17357 -0.674617,-0.26035 -1.208411,-0.26035 l -0.756485,0 0,-1.21824 0.795783,0 c 0.474847,10e-6 0.828528,-0.0737 1.061044,-0.22105 0.232508,-0.15063 0.348765,-0.37823 0.348769,-0.6828 -4e-6,-0.28163 -0.112986,-0.4994 -0.338945,-0.65333 -0.225966,-0.15391 -0.545262,-0.23087 -0.957886,-0.23087 -0.304562,0 -0.612395,0.0344 -0.923501,0.10316 -0.311111,0.0688 -0.620581,0.17029 -0.928414,0.30455 l 0,-1.38525 c 0.373329,-0.10478 0.743384,-0.18338 1.110166,-0.23579 0.366778,-0.0524 0.727009,-0.0786 1.080693,-0.0786 0.95297,10e-6 1.665244,0.1572 2.136824,0.47157 0.474844,0.31112 0.712269,0.78106 0.712275,1.40982 -6e-6,0.429 -0.112987,0.78105 -0.338945,1.05613 -0.225968,0.27181 -0.56,0.46339 -1.002096,0.57473" style="-inkscape-font-specification:Sans Bold" transform="rotate(140 -58.565 -94.472)"/><path d="m -66.292418,-616.51814 1.670161,0 0,-4.74031 -1.714372,0.35368 0,-1.28701 1.704548,-0.35368 1.797879,0 0,6.02732 1.670162,0 0,1.30665 -5.128378,0 0,-1.30665" style="-inkscape-font-specification:Sans Bold" transform="rotate(140 -58.565 -94.472)"/><path d="m -55.848997,-618.88584 c -5e-6,-0.91695 -0.08679,-1.56209 -0.260349,-1.93542 -0.170295,-0.3766 -0.45848,-0.56491 -0.864554,-0.56491 -0.406082,0 -0.695904,0.18831 -0.869467,0.56491 -0.173568,0.37333 -0.260351,1.01847 -0.260348,1.93542 -3e-6,0.92678 0.08678,1.5801 0.260348,1.95998 0.173563,0.37988 0.463385,0.56982 0.869467,0.56982 0.4028,0 0.690984,-0.18994 0.864554,-0.56982 0.173561,-0.37988 0.260344,-1.0332 0.260349,-1.95998 m 1.891212,0.0147 c -7e-6,1.21497 -0.261992,2.1532 -0.785958,2.81472 -0.523978,0.65824 -1.267363,0.98736 -2.230157,0.98736 -0.966076,0 -1.711099,-0.32912 -2.235069,-0.98736 -0.523973,-0.66152 -0.785959,-1.59975 -0.785958,-2.81472 -1e-6,-1.21823 0.261985,-2.15646 0.785958,-2.81471 0.52397,-0.66151 1.268993,-0.99226 2.235069,-0.99227 0.962794,10e-6 1.706179,0.33076 2.230157,0.99227 0.523966,0.65825 0.785951,1.59648 0.785958,2.81471" style="-inkscape-font-specification:Sans Bold" transform="rotate(140 -58.565 -94.472)"/></g><g style="line-height:125%" font-size="10.06" font-weight="700" letter-spacing="0" word-spacing="0" fill="#e36a5c" font-family="Sans"><path d="m -146.97374,-601.96223 c 0.49449,0.12773 0.86946,0.35041 1.1249,0.66807 0.25871,0.31438 0.38806,0.71555 0.38807,1.2035 -1e-5,0.72701 -0.27837,1.28045 -0.83508,1.66033 -0.55673,0.37661 -1.36888,0.56491 -2.43647,0.56491 -0.37661,0 -0.75485,-0.0311 -1.13473,-0.0933 -0.37661,-0.0589 -0.74994,-0.14901 -1.11999,-0.27017 l 0,-1.45894 c 0.35368,0.17684 0.70408,0.31111 1.05122,0.4028 0.3504,0.0884 0.69426,0.13264 1.03157,0.13263 0.50104,10e-6 0.8842,-0.0868 1.14946,-0.26034 0.26853,-0.17357 0.4028,-0.42245 0.40281,-0.74666 -1e-5,-0.33403 -0.13755,-0.5862 -0.41263,-0.75649 -0.27182,-0.17356 -0.67462,-0.26034 -1.20841,-0.26035 l -0.75649,0 0,-1.21823 0.79578,0 c 0.47485,0 0.82853,-0.0737 1.06105,-0.22105 0.23251,-0.15064 0.34876,-0.37824 0.34877,-0.68281 -1e-5,-0.28162 -0.11299,-0.4994 -0.33895,-0.65332 -0.22596,-0.15391 -0.54526,-0.23087 -0.95788,-0.23088 -0.30457,10e-6 -0.6124,0.0344 -0.92351,0.10316 -0.31111,0.0688 -0.62058,0.1703 -0.92841,0.30456 l 0,-1.38525 c 0.37333,-0.10479 0.74339,-0.18339 1.11017,-0.23579 0.36678,-0.0524 0.72701,-0.0786 1.08069,-0.0786 0.95297,10e-6 1.66524,0.1572 2.13682,0.47158 0.47485,0.31111 0.71227,0.78105 0.71228,1.40981 -1e-5,0.42901 -0.11299,0.78105 -0.33895,1.05613 -0.22596,0.27182 -0.56,0.46339 -1.00209,0.57473" style="-inkscape-font-specification:Sans Bold" transform="rotate(150 -64.768 -86.591)"/><path d="m -140.03766,-601.68223 c 0,-0.91695 -0.0868,-1.56209 -0.26035,-1.93542 -0.17029,-0.3766 -0.45848,-0.5649 -0.86455,-0.56491 -0.40608,10e-6 -0.69591,0.18831 -0.86947,0.56491 -0.17357,0.37333 -0.26035,1.01847 -0.26035,1.93542 0,0.92678 0.0868,1.58011 0.26035,1.95998 0.17356,0.37989 0.46339,0.56983 0.86947,0.56982 0.4028,10e-6 0.69098,-0.18993 0.86455,-0.56982 0.17356,-0.37987 0.26035,-1.0332 0.26035,-1.95998 m 1.89121,0.0147 c 0,1.21496 -0.26199,2.1532 -0.78596,2.81471 -0.52397,0.65824 -1.26736,0.98736 -2.23015,0.98736 -0.96608,0 -1.7111,-0.32912 -2.23507,-0.98736 -0.52398,-0.66151 -0.78596,-1.59975 -0.78596,-2.81471 0,-1.21823 0.26198,-2.15647 0.78596,-2.81472 0.52397,-0.6615 1.26899,-0.99226 2.23507,-0.99227 0.96279,10e-6 1.70618,0.33077 2.23015,0.99227 0.52397,0.65825 0.78596,1.59649 0.78596,2.81472" style="-inkscape-font-specification:Sans Bold" transform="rotate(150 -64.768 -86.591)"/><path d="m -133.04263,-601.68223 c -1e-5,-0.91695 -0.0868,-1.56209 -0.26035,-1.93542 -0.1703,-0.3766 -0.45848,-0.5649 -0.86455,-0.56491 -0.40609,10e-6 -0.69591,0.18831 -0.86947,0.56491 -0.17357,0.37333 -0.26035,1.01847 -0.26035,1.93542 0,0.92678 0.0868,1.58011 0.26035,1.95998 0.17356,0.37989 0.46338,0.56983 0.86947,0.56982 0.4028,10e-6 0.69098,-0.18993 0.86455,-0.56982 0.17356,-0.37987 0.26034,-1.0332 0.26035,-1.95998 m 1.89121,0.0147 c -1e-5,1.21496 -0.26199,2.1532 -0.78596,2.81471 -0.52397,0.65824 -1.26736,0.98736 -2.23015,0.98736 -0.96608,0 -1.7111,-0.32912 -2.23507,-0.98736 -0.52398,-0.66151 -0.78596,-1.59975 -0.78596,-2.81471 0,-1.21823 0.26198,-2.15647 0.78596,-2.81472 0.52397,-0.6615 1.26899,-0.99226 2.23507,-0.99227 0.96279,10e-6 1.70618,0.33077 2.23015,0.99227 0.52397,0.65825 0.78595,1.59649 0.78596,2.81472" style="-inkscape-font-specification:Sans Bold" transform="rotate(150 -64.768 -86.591)"/></g><g style="line-height:125%" font-size="10.06" font-weight="700" letter-spacing="0" word-spacing="0" fill="#e36a5c" font-family="Sans"><path d="m -222.56766,-567.98037 3.22734,0 0,1.39016 -5.32978,0 0,-1.39016 2.67717,-2.36279 c 0.23906,-0.21614 0.4159,-0.42736 0.53052,-0.63368 0.11462,-0.20631 0.17193,-0.42081 0.17193,-0.6435 0,-0.34385 -0.11626,-0.62058 -0.34877,-0.83017 -0.22924,-0.20958 -0.53543,-0.31438 -0.91859,-0.31439 -0.29473,10e-6 -0.6173,0.0639 -0.96771,0.19158 -0.3504,0.12445 -0.72537,0.31112 -1.1249,0.56 l 0,-1.61122 c 0.42573,-0.14081 0.84654,-0.24724 1.26245,-0.31929 0.4159,-0.0753 0.82361,-0.11298 1.22314,-0.11298 0.87765,0 1.55882,0.19322 2.0435,0.57964 0.48794,0.38644 0.73191,0.92514 0.73192,1.61613 -1e-5,0.39953 -0.10316,0.77286 -0.30947,1.11999 -0.20632,0.34386 -0.64024,0.80561 -1.30175,1.38525 l -1.567,1.37543" style="-inkscape-font-specification:Sans Bold" transform="rotate(160 -70.687 -79.071)"/><path d="m -217.46384,-566.75231 0,-1.35578 c 0.30128,0.14082 0.58946,0.24725 0.86455,0.31929 0.27508,0.0688 0.54689,0.10316 0.81543,0.10316 0.56327,0 1.0021,-0.15555 1.31648,-0.46666 0.31438,-0.31438 0.49941,-0.77941 0.55509,-1.39508 -0.2227,0.16375 -0.46012,0.28655 -0.71228,0.36842 -0.25216,0.0819 -0.52561,0.12281 -0.82034,0.12281 -0.74994,0 -1.35578,-0.21778 -1.81753,-0.65333 -0.45848,-0.43883 -0.68772,-1.01519 -0.68771,-1.72911 -1e-5,-0.78923 0.25543,-1.42127 0.7663,-1.89612 0.51415,-0.47485 1.20186,-0.71227 2.06314,-0.71228 0.95625,1e-5 1.69636,0.32258 2.22034,0.96771 0.52396,0.64515 0.78595,1.55719 0.78596,2.73612 -1e-5,1.21169 -0.30621,2.16466 -0.91859,2.85892 -0.6124,0.69099 -1.45239,1.03648 -2.51998,1.03648 -0.34386,0 -0.67298,-0.0262 -0.98736,-0.0786 -0.31439,-0.0491 -0.62222,-0.12444 -0.9235,-0.22596 m 2.33331,-3.5319 c 0.33075,0 0.57964,-0.10643 0.74666,-0.3193 0.16701,-0.21613 0.25052,-0.5387 0.25053,-0.96771 -1e-5,-0.42572 -0.0835,-0.74666 -0.25053,-0.9628 -0.16702,-0.21613 -0.41591,-0.3242 -0.74666,-0.32421 -0.33076,1e-5 -0.57965,0.10808 -0.74666,0.32421 -0.16702,0.21614 -0.25053,0.53708 -0.25052,0.9628 -1e-5,0.42901 0.0835,0.75158 0.25052,0.96771 0.16701,0.21287 0.4159,0.3193 0.74666,0.3193" style="-inkscape-font-specification:Sans Bold" transform="rotate(160 -70.687 -79.071)"/><path d="m -206.84849,-570.26457 c -1e-5,-0.91694 -0.0868,-1.56208 -0.26035,-1.93542 -0.1703,-0.3766 -0.45848,-0.5649 -0.86456,-0.56491 -0.40608,10e-6 -0.6959,0.18831 -0.86946,0.56491 -0.17357,0.37334 -0.26035,1.01848 -0.26035,1.93542 0,0.92678 0.0868,1.58011 0.26035,1.95999 0.17356,0.37988 0.46338,0.56982 0.86946,0.56982 0.4028,0 0.69099,-0.18994 0.86456,-0.56982 0.17356,-0.37988 0.26034,-1.03321 0.26035,-1.95999 m 1.89121,0.0147 c -1e-5,1.21496 -0.26199,2.1532 -0.78596,2.81471 -0.52398,0.65825 -1.26736,0.98736 -2.23016,0.98736 -0.96607,0 -1.7111,-0.32911 -2.23507,-0.98736 -0.52397,-0.66151 -0.78595,-1.59975 -0.78595,-2.81471 0,-1.21823 0.26198,-2.15647 0.78595,-2.81471 0.52397,-0.66151 1.269,-0.99227 2.23507,-0.99227 0.9628,0 1.70618,0.33076 2.23016,0.99227 0.52397,0.65824 0.78595,1.59648 0.78596,2.81471" style="-inkscape-font-specification:Sans Bold" transform="rotate(160 -70.687 -79.071)"/></g><g style="line-height:125%" font-size="10.06" font-weight="700" letter-spacing="0" word-spacing="0" fill="#e36a5c" font-family="Sans"><path d="m -291.67105,-524.42666 3.22734,0 0,1.39016 -5.32978,0 0,-1.39016 2.67717,-2.36279 c 0.23906,-0.21613 0.4159,-0.42736 0.53052,-0.63368 0.11462,-0.20631 0.17192,-0.42081 0.17193,-0.6435 -1e-5,-0.34385 -0.11626,-0.62058 -0.34877,-0.83017 -0.22924,-0.20958 -0.53544,-0.31438 -0.91859,-0.31438 -0.29474,0 -0.61731,0.0639 -0.96771,0.19157 -0.35041,0.12445 -0.72538,0.31112 -1.1249,0.56 l 0,-1.61122 c 0.42572,-0.14081 0.84654,-0.24724 1.26244,-0.31929 0.4159,-0.0753 0.82362,-0.11298 1.22315,-0.11298 0.87765,0 1.55881,0.19322 2.04349,0.57964 0.48794,0.38644 0.73192,0.92515 0.73193,1.61613 -10e-6,0.39953 -0.10317,0.77286 -0.30948,1.11999 -0.20632,0.34386 -0.64023,0.80561 -1.30174,1.38525 l -1.567,1.37543" style="-inkscape-font-specification:Sans Bold" transform="rotate(170 -76.426 -71.78)"/><path d="m -284.07182,-526.31788 c -0.35368,10e-6 -0.62549,0.0966 -0.81543,0.28983 -0.18994,0.19321 -0.28491,0.46994 -0.28491,0.83017 0,0.36023 0.095,0.63695 0.28491,0.83016 0.18994,0.18995 0.46175,0.28492 0.81543,0.28491 0.3504,10e-6 0.61894,-0.095 0.80561,-0.28491 0.18666,-0.19321 0.27999,-0.46993 0.28,-0.83016 -10e-6,-0.36351 -0.0933,-0.64023 -0.28,-0.83017 -0.18667,-0.19321 -0.45521,-0.28982 -0.80561,-0.28983 m -1.38034,-0.62385 c -0.44538,-0.13426 -0.78105,-0.34058 -1.00701,-0.61894 -0.22596,-0.27836 -0.33894,-0.62549 -0.33894,-1.0414 0,-0.61893 0.23087,-1.09051 0.69262,-1.41472 0.46175,-0.3242 1.13964,-0.48631 2.03367,-0.48631 0.88747,0 1.56209,0.16211 2.02384,0.48631 0.46175,0.32094 0.69262,0.79251 0.69263,1.41472 -1e-5,0.41591 -0.11463,0.76304 -0.34386,1.0414 -0.22597,0.27836 -0.56164,0.48468 -1.00701,0.61894 0.49777,0.13755 0.87274,0.36187 1.12491,0.67298 0.25543,0.30783 0.38314,0.69754 0.38315,1.16911 -1e-5,0.72701 -0.24234,1.27718 -0.72701,1.65051 -0.48141,0.37006 -1.19695,0.55509 -2.14665,0.55509 -0.95298,0 -1.67344,-0.18503 -2.16138,-0.55509 -0.48468,-0.37333 -0.72702,-0.9235 -0.72702,-1.65051 0,-0.47157 0.12608,-0.86128 0.37825,-1.16911 0.25543,-0.31111 0.63204,-0.53543 1.12981,-0.67298 m 0.4421,-1.46876 c 0,0.29147 0.0802,0.51579 0.2407,0.67298 0.16374,0.15719 0.39625,0.23579 0.69754,0.23579 0.29473,0 0.52233,-0.0786 0.6828,-0.23579 0.16046,-0.15719 0.2407,-0.38151 0.2407,-0.67298 0,-0.29145 -0.0802,-0.51414 -0.2407,-0.66806 -0.16047,-0.15719 -0.38807,-0.23578 -0.6828,-0.23579 -0.30129,10e-6 -0.5338,0.0786 -0.69754,0.23579 -0.16047,0.15719 -0.2407,0.37988 -0.2407,0.66806" style="-inkscape-font-specification:Sans Bold" transform="rotate(170 -76.426 -71.78)"/><path d="m -275.95189,-526.71085 c 0,-0.91695 -0.0868,-1.56209 -0.26035,-1.93543 -0.17029,-0.3766 -0.45848,-0.5649 -0.86455,-0.5649 -0.40608,0 -0.6959,0.1883 -0.86947,0.5649 -0.17356,0.37334 -0.26035,1.01848 -0.26035,1.93543 0,0.92677 0.0868,1.5801 0.26035,1.95998 0.17357,0.37988 0.46339,0.56982 0.86947,0.56982 0.4028,0 0.69098,-0.18994 0.86455,-0.56982 0.17357,-0.37988 0.26035,-1.03321 0.26035,-1.95998 m 1.89121,0.0147 c 0,1.21497 -0.26199,2.1532 -0.78595,2.81472 -0.52398,0.65824 -1.26737,0.98736 -2.23016,0.98736 -0.96608,0 -1.7111,-0.32912 -2.23507,-0.98736 -0.52397,-0.66152 -0.78596,-1.59975 -0.78596,-2.81472 0,-1.21823 0.26199,-2.15646 0.78596,-2.81471 0.52397,-0.66151 1.26899,-0.99227 2.23507,-0.99227 0.96279,0 1.70618,0.33076 2.23016,0.99227 0.52396,0.65825 0.78595,1.59648 0.78595,2.81471" style="-inkscape-font-specification:Sans Bold" transform="rotate(170 -76.426 -71.78)"/></g><text transform="rotate(180 -82.077 -64.599)" style="line-height:125%" x="-341.197" y="-475.44" font-size="40" font-weight="400" letter-spacing="0" word-spacing="0" fill="#e36a5c" font-family="Sans"/><path d="m 567.70572,311.41528 a 177.28177,177.28177 0 1 1 -354.56354,0 177.28177,177.28177 0 1 1 354.56354,0 z" transform="matrix(.096 0 0 .096 141.372 151.25)" fill="#b2e5e8" stroke="#4c4c4c" stroke-width="14.131"/></svg>